<mxfile host="app.diagrams.net" agent="Mozilla/5.0 (Macintosh; Intel Mac OS X 10_15_7) AppleWebKit/537.36 (KHTML, like Gecko) Chrome/129.0.0.0 Safari/537.36" version="24.7.17">
  <diagram name="第 1 页" id="VJUE1RE77h7DHMEBgFPP">
    <mxGraphModel dx="3144" dy="1100" grid="1" gridSize="10" guides="1" tooltips="1" connect="1" arrows="1" fold="1" page="1" pageScale="1" pageWidth="1169" pageHeight="827" math="0" shadow="0">
      <root>
        <mxCell id="0" />
        <mxCell id="1" parent="0" />
        <mxCell id="VHds4E-agZUkcuYPBKTy-1" value="" style="rounded=1;whiteSpace=wrap;html=1;dashed=1;" vertex="1" parent="1">
          <mxGeometry x="-1030" y="320" width="626" height="52" as="geometry" />
        </mxCell>
        <mxCell id="VHds4E-agZUkcuYPBKTy-2" value="" style="rounded=0;whiteSpace=wrap;html=1;dashed=1;" vertex="1" parent="1">
          <mxGeometry x="-1080" y="140" width="670" height="53" as="geometry" />
        </mxCell>
        <mxCell id="VHds4E-agZUkcuYPBKTy-3" style="edgeStyle=orthogonalEdgeStyle;rounded=0;orthogonalLoop=1;jettySize=auto;html=1;entryX=0;entryY=0.5;entryDx=0;entryDy=0;" edge="1" parent="1" source="VHds4E-agZUkcuYPBKTy-4" target="VHds4E-agZUkcuYPBKTy-1">
          <mxGeometry relative="1" as="geometry">
            <Array as="points">
              <mxPoint x="-1154" y="515" />
              <mxPoint x="-1154" y="346" />
            </Array>
          </mxGeometry>
        </mxCell>
        <mxCell id="VHds4E-agZUkcuYPBKTy-4" value="" style="rounded=1;whiteSpace=wrap;html=1;dashed=1;" vertex="1" parent="1">
          <mxGeometry x="-914" y="490" width="560" height="50" as="geometry" />
        </mxCell>
        <mxCell id="VHds4E-agZUkcuYPBKTy-5" value="" style="rounded=0;whiteSpace=wrap;html=1;dashed=1;" vertex="1" parent="1">
          <mxGeometry x="-1094" y="384" width="690" height="52" as="geometry" />
        </mxCell>
        <mxCell id="VHds4E-agZUkcuYPBKTy-6" value="" style="rounded=0;whiteSpace=wrap;html=1;dashed=1;" vertex="1" parent="1">
          <mxGeometry x="-400" y="381" width="420" height="53.5" as="geometry" />
        </mxCell>
        <mxCell id="VHds4E-agZUkcuYPBKTy-7" style="edgeStyle=orthogonalEdgeStyle;shape=connector;rounded=0;orthogonalLoop=1;jettySize=auto;html=1;exitX=0.5;exitY=0;exitDx=0;exitDy=0;strokeColor=default;align=center;verticalAlign=middle;fontFamily=Helvetica;fontSize=11;fontColor=default;labelBackgroundColor=default;endArrow=classic;" edge="1" parent="1" source="VHds4E-agZUkcuYPBKTy-8" target="VHds4E-agZUkcuYPBKTy-14">
          <mxGeometry relative="1" as="geometry" />
        </mxCell>
        <mxCell id="VHds4E-agZUkcuYPBKTy-8" value="&lt;div style=&quot;background-color: rgb(255, 255, 255); font-family: &amp;quot;Fira Code&amp;quot;, Menlo, Monaco, &amp;quot;Courier New&amp;quot;, monospace; font-size: 14px; line-height: 21px; white-space: pre;&quot;&gt;fans_input&lt;/div&gt;" style="rounded=0;whiteSpace=wrap;html=1;" vertex="1" parent="1">
          <mxGeometry x="-117.49666666666667" y="471" width="118" height="35" as="geometry" />
        </mxCell>
        <mxCell id="VHds4E-agZUkcuYPBKTy-9" style="edgeStyle=orthogonalEdgeStyle;rounded=0;orthogonalLoop=1;jettySize=auto;html=1;exitX=0.5;exitY=0;exitDx=0;exitDy=0;" edge="1" parent="1" source="VHds4E-agZUkcuYPBKTy-10" target="VHds4E-agZUkcuYPBKTy-8">
          <mxGeometry relative="1" as="geometry" />
        </mxCell>
        <mxCell id="VHds4E-agZUkcuYPBKTy-10" value="&lt;div style=&quot;background-color: rgb(255, 255, 255); font-family: &amp;quot;Fira Code&amp;quot;, Menlo, Monaco, &amp;quot;Courier New&amp;quot;, monospace; font-size: 14px; line-height: 21px; white-space: pre;&quot;&gt;&lt;div style=&quot;line-height: 21px;&quot;&gt;user_att_input&lt;/div&gt;&lt;/div&gt;" style="rounded=0;whiteSpace=wrap;html=1;" vertex="1" parent="1">
          <mxGeometry x="-190.5" y="554" width="126" height="35" as="geometry" />
        </mxCell>
        <mxCell id="VHds4E-agZUkcuYPBKTy-11" style="edgeStyle=orthogonalEdgeStyle;rounded=0;orthogonalLoop=1;jettySize=auto;html=1;exitX=0.5;exitY=0;exitDx=0;exitDy=0;" edge="1" parent="1" source="VHds4E-agZUkcuYPBKTy-13" target="VHds4E-agZUkcuYPBKTy-8">
          <mxGeometry relative="1" as="geometry" />
        </mxCell>
        <mxCell id="VHds4E-agZUkcuYPBKTy-12" value="&lt;div style=&quot;font-family: &amp;quot;Fira Code&amp;quot;, Menlo, Monaco, &amp;quot;Courier New&amp;quot;, monospace; line-height: 21px; white-space-collapse: preserve;&quot;&gt;&lt;font style=&quot;font-size: 10px;&quot;&gt;concat()&lt;/font&gt;&lt;/div&gt;" style="edgeLabel;html=1;align=center;verticalAlign=middle;resizable=0;points=[];fontFamily=Helvetica;fontSize=11;fontColor=default;labelBackgroundColor=default;" vertex="1" connectable="0" parent="VHds4E-agZUkcuYPBKTy-11">
          <mxGeometry x="0.0372" y="-2" relative="1" as="geometry">
            <mxPoint x="-7" y="-10" as="offset" />
          </mxGeometry>
        </mxCell>
        <mxCell id="VHds4E-agZUkcuYPBKTy-13" value="&lt;div style=&quot;background-color: rgb(255, 255, 255); font-family: &amp;quot;Fira Code&amp;quot;, Menlo, Monaco, &amp;quot;Courier New&amp;quot;, monospace; font-size: 14px; line-height: 21px; white-space: pre;&quot;&gt;&lt;div style=&quot;line-height: 21px;&quot;&gt;&lt;div style=&quot;line-height: 21px;&quot;&gt;seeds_att_input&lt;/div&gt;&lt;/div&gt;&lt;/div&gt;" style="rounded=0;whiteSpace=wrap;html=1;" vertex="1" parent="1">
          <mxGeometry x="-35.83333333333337" y="554" width="126" height="35" as="geometry" />
        </mxCell>
        <mxCell id="VHds4E-agZUkcuYPBKTy-14" value="&lt;div style=&quot;background-color: rgb(255, 255, 255); font-family: &amp;quot;Fira Code&amp;quot;, Menlo, Monaco, &amp;quot;Courier New&amp;quot;, monospace; font-size: 14px; line-height: 21px; white-space: pre;&quot;&gt;&lt;div style=&quot;line-height: 21px;&quot;&gt;fans_expert&lt;/div&gt;&lt;/div&gt;" style="rounded=0;whiteSpace=wrap;html=1;" vertex="1" parent="1">
          <mxGeometry x="-117.66666666666674" y="392" width="118" height="35" as="geometry" />
        </mxCell>
        <mxCell id="VHds4E-agZUkcuYPBKTy-15" style="edgeStyle=orthogonalEdgeStyle;shape=connector;rounded=0;orthogonalLoop=1;jettySize=auto;html=1;strokeColor=default;align=center;verticalAlign=middle;fontFamily=Helvetica;fontSize=11;fontColor=default;labelBackgroundColor=default;endArrow=none;exitX=0.5;exitY=0;exitDx=0;exitDy=0;endFill=0;" edge="1" parent="1">
          <mxGeometry relative="1" as="geometry">
            <mxPoint x="-445.8205128205127" y="460" as="targetPoint" />
            <mxPoint x="-445.99666666666667" y="498" as="sourcePoint" />
          </mxGeometry>
        </mxCell>
        <mxCell id="VHds4E-agZUkcuYPBKTy-16" value="&lt;div style=&quot;background-color: rgb(255, 255, 255); font-family: &amp;quot;Fira Code&amp;quot;, Menlo, Monaco, &amp;quot;Courier New&amp;quot;, monospace; font-size: 14px; line-height: 21px; white-space: pre;&quot;&gt;&lt;div style=&quot;line-height: 21px;&quot;&gt;expert_input&lt;/div&gt;&lt;/div&gt;" style="rounded=0;whiteSpace=wrap;html=1;" vertex="1" parent="1">
          <mxGeometry x="-518.4966666666667" y="498" width="145" height="35" as="geometry" />
        </mxCell>
        <mxCell id="VHds4E-agZUkcuYPBKTy-17" style="edgeStyle=orthogonalEdgeStyle;rounded=0;orthogonalLoop=1;jettySize=auto;html=1;exitX=0.5;exitY=0;exitDx=0;exitDy=0;entryX=0.5;entryY=1;entryDx=0;entryDy=0;" edge="1" parent="1" source="VHds4E-agZUkcuYPBKTy-18">
          <mxGeometry relative="1" as="geometry">
            <Array as="points">
              <mxPoint x="-526" y="581" />
              <mxPoint x="-526" y="565" />
              <mxPoint x="-446" y="565" />
            </Array>
            <mxPoint x="-446" y="529" as="targetPoint" />
          </mxGeometry>
        </mxCell>
        <mxCell id="VHds4E-agZUkcuYPBKTy-18" value="&lt;div style=&quot;background-color: rgb(255, 255, 255); font-family: &amp;quot;Fira Code&amp;quot;, Menlo, Monaco, &amp;quot;Courier New&amp;quot;, monospace; font-size: 14px; line-height: 21px; white-space: pre;&quot;&gt;&lt;div style=&quot;line-height: 21px;&quot;&gt;&lt;div style=&quot;line-height: 21px;&quot;&gt;bucket_slot&lt;/div&gt;&lt;div style=&quot;line-height: 21px;&quot;&gt;用户-主播 分桶&lt;/div&gt;&lt;/div&gt;&lt;/div&gt;" style="rounded=0;whiteSpace=wrap;html=1;" vertex="1" parent="1">
          <mxGeometry x="-610" y="581" width="145" height="51" as="geometry" />
        </mxCell>
        <mxCell id="VHds4E-agZUkcuYPBKTy-19" style="edgeStyle=orthogonalEdgeStyle;rounded=0;orthogonalLoop=1;jettySize=auto;html=1;exitX=0.5;exitY=0;exitDx=0;exitDy=0;entryX=0.5;entryY=1;entryDx=0;entryDy=0;" edge="1" parent="1" source="VHds4E-agZUkcuYPBKTy-21">
          <mxGeometry relative="1" as="geometry">
            <Array as="points">
              <mxPoint x="-365" y="589" />
              <mxPoint x="-365" y="565" />
              <mxPoint x="-446" y="565" />
            </Array>
            <mxPoint x="-446" y="529" as="targetPoint" />
          </mxGeometry>
        </mxCell>
        <mxCell id="VHds4E-agZUkcuYPBKTy-20" value="&lt;span style=&quot;font-family: &amp;quot;Fira Code&amp;quot;, Menlo, Monaco, &amp;quot;Courier New&amp;quot;, monospace; white-space-collapse: preserve;&quot;&gt;&lt;font style=&quot;font-size: 10px;&quot;&gt;spread_tower()&lt;/font&gt;&lt;/span&gt;" style="edgeLabel;html=1;align=center;verticalAlign=middle;resizable=0;points=[];fontFamily=Helvetica;fontSize=11;fontColor=default;labelBackgroundColor=default;" vertex="1" connectable="0" parent="VHds4E-agZUkcuYPBKTy-19">
          <mxGeometry x="0.0055" relative="1" as="geometry">
            <mxPoint x="-38" y="-15" as="offset" />
          </mxGeometry>
        </mxCell>
        <mxCell id="VHds4E-agZUkcuYPBKTy-21" value="&lt;div style=&quot;background-color: rgb(255, 255, 255); font-family: &amp;quot;Fira Code&amp;quot;, Menlo, Monaco, &amp;quot;Courier New&amp;quot;, monospace; font-size: 14px; line-height: 21px; white-space: pre;&quot;&gt;&lt;div style=&quot;line-height: 21px;&quot;&gt;&lt;div style=&quot;line-height: 21px;&quot;&gt;&lt;div style=&quot;line-height: 21px;&quot;&gt;&lt;div style=&quot;line-height: 21px;&quot;&gt;bias_slots&lt;/div&gt;&lt;/div&gt;&lt;/div&gt;&lt;/div&gt;&lt;/div&gt;" style="rounded=0;whiteSpace=wrap;html=1;" vertex="1" parent="1">
          <mxGeometry x="-450" y="589" width="145" height="35" as="geometry" />
        </mxCell>
        <mxCell id="VHds4E-agZUkcuYPBKTy-22" style="edgeStyle=orthogonalEdgeStyle;rounded=0;orthogonalLoop=1;jettySize=auto;html=1;exitX=0.5;exitY=0;exitDx=0;exitDy=0;" edge="1" parent="1" target="VHds4E-agZUkcuYPBKTy-31">
          <mxGeometry relative="1" as="geometry">
            <Array as="points">
              <mxPoint x="-445" y="455" />
              <mxPoint x="-320" y="455" />
            </Array>
            <mxPoint x="-445.5" y="471" as="sourcePoint" />
          </mxGeometry>
        </mxCell>
        <mxCell id="VHds4E-agZUkcuYPBKTy-23" style="edgeStyle=orthogonalEdgeStyle;rounded=0;orthogonalLoop=1;jettySize=auto;html=1;exitX=0.5;exitY=0;exitDx=0;exitDy=0;entryX=0.5;entryY=1;entryDx=0;entryDy=0;" edge="1" parent="1" target="VHds4E-agZUkcuYPBKTy-35">
          <mxGeometry relative="1" as="geometry">
            <Array as="points">
              <mxPoint x="-445" y="455" />
              <mxPoint x="-487" y="455" />
            </Array>
            <mxPoint x="-445.5" y="471" as="sourcePoint" />
          </mxGeometry>
        </mxCell>
        <mxCell id="VHds4E-agZUkcuYPBKTy-24" style="edgeStyle=orthogonalEdgeStyle;rounded=0;orthogonalLoop=1;jettySize=auto;html=1;exitX=0.5;exitY=0;exitDx=0;exitDy=0;entryX=0.5;entryY=1;entryDx=0;entryDy=0;" edge="1" parent="1" target="VHds4E-agZUkcuYPBKTy-30">
          <mxGeometry relative="1" as="geometry">
            <Array as="points">
              <mxPoint x="-445" y="455" />
              <mxPoint x="-644" y="455" />
            </Array>
            <mxPoint x="-445.5" y="471" as="sourcePoint" />
          </mxGeometry>
        </mxCell>
        <mxCell id="VHds4E-agZUkcuYPBKTy-25" style="edgeStyle=orthogonalEdgeStyle;rounded=0;orthogonalLoop=1;jettySize=auto;html=1;exitX=0.5;exitY=0;exitDx=0;exitDy=0;entryX=0.5;entryY=1;entryDx=0;entryDy=0;" edge="1" parent="1" target="VHds4E-agZUkcuYPBKTy-33">
          <mxGeometry relative="1" as="geometry">
            <Array as="points">
              <mxPoint x="-445" y="455" />
              <mxPoint x="-799" y="455" />
            </Array>
            <mxPoint x="-445.5" y="471" as="sourcePoint" />
          </mxGeometry>
        </mxCell>
        <mxCell id="VHds4E-agZUkcuYPBKTy-26" style="edgeStyle=orthogonalEdgeStyle;rounded=0;orthogonalLoop=1;jettySize=auto;html=1;entryX=0.5;entryY=1;entryDx=0;entryDy=0;exitX=0.5;exitY=0;exitDx=0;exitDy=0;endArrow=classic;endFill=1;" edge="1" parent="1" target="VHds4E-agZUkcuYPBKTy-28">
          <mxGeometry relative="1" as="geometry">
            <mxPoint x="-445.5" y="471" as="sourcePoint" />
            <mxPoint x="-954.4966666666669" y="426" as="targetPoint" />
            <Array as="points">
              <mxPoint x="-445" y="455" />
              <mxPoint x="-956" y="455" />
              <mxPoint x="-956" y="430" />
              <mxPoint x="-955" y="430" />
            </Array>
          </mxGeometry>
        </mxCell>
        <mxCell id="VHds4E-agZUkcuYPBKTy-27" style="edgeStyle=orthogonalEdgeStyle;rounded=0;orthogonalLoop=1;jettySize=auto;html=1;exitX=0.5;exitY=0;exitDx=0;exitDy=0;entryX=0.5;entryY=1;entryDx=0;entryDy=0;" edge="1" parent="1" source="VHds4E-agZUkcuYPBKTy-28" target="VHds4E-agZUkcuYPBKTy-83">
          <mxGeometry relative="1" as="geometry" />
        </mxCell>
        <mxCell id="VHds4E-agZUkcuYPBKTy-28" value="&lt;div style=&quot;background-color: rgb(255, 255, 255); font-family: &amp;quot;Fira Code&amp;quot;, Menlo, Monaco, &amp;quot;Courier New&amp;quot;, monospace; font-size: 14px; line-height: 21px; white-space: pre;&quot;&gt;&lt;div style=&quot;line-height: 21px;&quot;&gt;&lt;div style=&quot;line-height: 21px;&quot;&gt;&lt;div style=&quot;line-height: 21px;&quot;&gt;dura_3_expert&lt;/div&gt;&lt;/div&gt;&lt;/div&gt;&lt;/div&gt;" style="rounded=0;whiteSpace=wrap;html=1;" vertex="1" parent="1">
          <mxGeometry x="-1027.9966666666667" y="390" width="145" height="35" as="geometry" />
        </mxCell>
        <mxCell id="VHds4E-agZUkcuYPBKTy-29" style="edgeStyle=orthogonalEdgeStyle;rounded=0;orthogonalLoop=1;jettySize=auto;html=1;exitX=0.5;exitY=0;exitDx=0;exitDy=0;entryX=0.5;entryY=1;entryDx=0;entryDy=0;" edge="1" parent="1" source="VHds4E-agZUkcuYPBKTy-30" target="VHds4E-agZUkcuYPBKTy-87">
          <mxGeometry relative="1" as="geometry" />
        </mxCell>
        <mxCell id="VHds4E-agZUkcuYPBKTy-30" value="&lt;div style=&quot;background-color: rgb(255, 255, 255); font-family: &amp;quot;Fira Code&amp;quot;, Menlo, Monaco, &amp;quot;Courier New&amp;quot;, monospace; font-size: 14px; line-height: 21px; white-space: pre;&quot;&gt;&lt;div style=&quot;line-height: 21px;&quot;&gt;&lt;div style=&quot;line-height: 21px;&quot;&gt;&lt;div style=&quot;line-height: 21px;&quot;&gt;dura_30_expert&lt;/div&gt;&lt;/div&gt;&lt;/div&gt;&lt;/div&gt;" style="rounded=0;whiteSpace=wrap;html=1;" vertex="1" parent="1">
          <mxGeometry x="-716.9966666666667" y="391" width="145" height="35" as="geometry" />
        </mxCell>
        <mxCell id="VHds4E-agZUkcuYPBKTy-31" value="&lt;div style=&quot;background-color: rgb(255, 255, 255); font-family: &amp;quot;Fira Code&amp;quot;, Menlo, Monaco, &amp;quot;Courier New&amp;quot;, monospace; font-size: 14px; line-height: 21px; white-space: pre;&quot;&gt;&lt;div style=&quot;line-height: 21px;&quot;&gt;&lt;div style=&quot;line-height: 21px;&quot;&gt;share_expert1&lt;/div&gt;&lt;/div&gt;&lt;/div&gt;" style="rounded=0;whiteSpace=wrap;html=1;" vertex="1" parent="1">
          <mxGeometry x="-392.99666666666667" y="391" width="118" height="35" as="geometry" />
        </mxCell>
        <mxCell id="VHds4E-agZUkcuYPBKTy-32" style="edgeStyle=orthogonalEdgeStyle;rounded=0;orthogonalLoop=1;jettySize=auto;html=1;exitX=0.5;exitY=0;exitDx=0;exitDy=0;entryX=0.5;entryY=1;entryDx=0;entryDy=0;" edge="1" parent="1" source="VHds4E-agZUkcuYPBKTy-33" target="VHds4E-agZUkcuYPBKTy-85">
          <mxGeometry relative="1" as="geometry" />
        </mxCell>
        <mxCell id="VHds4E-agZUkcuYPBKTy-33" value="&lt;div style=&quot;background-color: rgb(255, 255, 255); font-family: &amp;quot;Fira Code&amp;quot;, Menlo, Monaco, &amp;quot;Courier New&amp;quot;, monospace; font-size: 14px; line-height: 21px; white-space: pre;&quot;&gt;&lt;div style=&quot;line-height: 21px;&quot;&gt;&lt;div style=&quot;line-height: 21px;&quot;&gt;&lt;div style=&quot;line-height: 21px;&quot;&gt;&lt;div style=&quot;line-height: 21px;&quot;&gt;ctr_expert&lt;br&gt;&lt;/div&gt;&lt;/div&gt;&lt;/div&gt;&lt;/div&gt;&lt;/div&gt;" style="rounded=0;whiteSpace=wrap;html=1;" vertex="1" parent="1">
          <mxGeometry x="-871.9966666666667" y="391" width="145" height="35" as="geometry" />
        </mxCell>
        <mxCell id="VHds4E-agZUkcuYPBKTy-34" style="edgeStyle=orthogonalEdgeStyle;rounded=0;orthogonalLoop=1;jettySize=auto;html=1;exitX=0.5;exitY=0;exitDx=0;exitDy=0;entryX=0.5;entryY=1;entryDx=0;entryDy=0;" edge="1" parent="1" source="VHds4E-agZUkcuYPBKTy-35" target="VHds4E-agZUkcuYPBKTy-89">
          <mxGeometry relative="1" as="geometry" />
        </mxCell>
        <mxCell id="VHds4E-agZUkcuYPBKTy-35" value="&lt;div style=&quot;background-color: rgb(255, 255, 255); font-family: &amp;quot;Fira Code&amp;quot;, Menlo, Monaco, &amp;quot;Courier New&amp;quot;, monospace; font-size: 14px; line-height: 21px; white-space: pre;&quot;&gt;&lt;div style=&quot;line-height: 21px;&quot;&gt;&lt;div style=&quot;line-height: 21px;&quot;&gt;&lt;div style=&quot;line-height: 21px;&quot;&gt;&lt;div style=&quot;line-height: 21px;&quot;&gt;&lt;div style=&quot;line-height: 21px;&quot;&gt;conv_expert&lt;/div&gt;&lt;/div&gt;&lt;/div&gt;&lt;/div&gt;&lt;/div&gt;&lt;/div&gt;" style="rounded=0;whiteSpace=wrap;html=1;" vertex="1" parent="1">
          <mxGeometry x="-559.9966666666667" y="391" width="145" height="35" as="geometry" />
        </mxCell>
        <mxCell id="VHds4E-agZUkcuYPBKTy-36" value="&lt;div style=&quot;background-color: rgb(255, 255, 255); font-family: &amp;quot;Fira Code&amp;quot;, Menlo, Monaco, &amp;quot;Courier New&amp;quot;, monospace; font-size: 14px; line-height: 21px; white-space: pre;&quot;&gt;&lt;div style=&quot;line-height: 21px;&quot;&gt;&lt;div style=&quot;line-height: 21px;&quot;&gt;entrance_expert&lt;/div&gt;&lt;/div&gt;&lt;/div&gt;" style="rounded=0;whiteSpace=wrap;html=1;" vertex="1" parent="1">
          <mxGeometry x="-258.99666666666667" y="392" width="126" height="35" as="geometry" />
        </mxCell>
        <mxCell id="VHds4E-agZUkcuYPBKTy-37" style="edgeStyle=orthogonalEdgeStyle;rounded=0;orthogonalLoop=1;jettySize=auto;html=1;exitX=0.5;exitY=0;exitDx=0;exitDy=0;entryX=0.5;entryY=1;entryDx=0;entryDy=0;" edge="1" parent="1" source="VHds4E-agZUkcuYPBKTy-39">
          <mxGeometry relative="1" as="geometry">
            <mxPoint x="-195" y="427" as="targetPoint" />
          </mxGeometry>
        </mxCell>
        <mxCell id="VHds4E-agZUkcuYPBKTy-38" value="&lt;span style=&quot;font-family: &amp;quot;Fira Code&amp;quot;, Menlo, Monaco, &amp;quot;Courier New&amp;quot;, monospace; white-space-collapse: preserve;&quot;&gt;&lt;font style=&quot;font-size: 10px;&quot;&gt;deep_net()&lt;/font&gt;&lt;/span&gt;" style="edgeLabel;html=1;align=center;verticalAlign=middle;resizable=0;points=[];fontFamily=Helvetica;fontSize=11;fontColor=default;labelBackgroundColor=default;" vertex="1" connectable="0" parent="VHds4E-agZUkcuYPBKTy-37">
          <mxGeometry x="0.1284" y="-1" relative="1" as="geometry">
            <mxPoint y="6" as="offset" />
          </mxGeometry>
        </mxCell>
        <mxCell id="VHds4E-agZUkcuYPBKTy-39" value="&lt;div style=&quot;background-color: rgb(255, 255, 255); font-family: &amp;quot;Fira Code&amp;quot;, Menlo, Monaco, &amp;quot;Courier New&amp;quot;, monospace; font-size: 14px; line-height: 21px; white-space: pre;&quot;&gt;&lt;div style=&quot;line-height: 21px;&quot;&gt;entrance_input&lt;/div&gt;&lt;/div&gt;" style="rounded=0;whiteSpace=wrap;html=1;" vertex="1" parent="1">
          <mxGeometry x="-256.99666666666667" y="470" width="126" height="35" as="geometry" />
        </mxCell>
        <mxCell id="VHds4E-agZUkcuYPBKTy-40" style="edgeStyle=orthogonalEdgeStyle;rounded=0;orthogonalLoop=1;jettySize=auto;html=1;entryX=1;entryY=0.5;entryDx=0;entryDy=0;" edge="1" parent="1" source="VHds4E-agZUkcuYPBKTy-41" target="VHds4E-agZUkcuYPBKTy-1">
          <mxGeometry relative="1" as="geometry">
            <Array as="points">
              <mxPoint x="-147" y="346" />
            </Array>
          </mxGeometry>
        </mxCell>
        <mxCell id="VHds4E-agZUkcuYPBKTy-41" value="&lt;div style=&quot;background-color: rgb(255, 255, 255); font-family: &amp;quot;Fira Code&amp;quot;, Menlo, Monaco, &amp;quot;Courier New&amp;quot;, monospace; font-size: 14px; line-height: 21px; white-space-collapse: preserve;&quot;&gt;share_experts&lt;/div&gt;" style="text;html=1;align=center;verticalAlign=middle;resizable=0;points=[];autosize=1;strokeColor=none;fillColor=none;fontColor=#0000FF;" vertex="1" parent="1">
          <mxGeometry x="-212.0000000000001" y="362" width="130" height="30" as="geometry" />
        </mxCell>
        <mxCell id="VHds4E-agZUkcuYPBKTy-42" value="&lt;div style=&quot;background-color: rgb(255, 255, 255); font-family: &amp;quot;Fira Code&amp;quot;, Menlo, Monaco, &amp;quot;Courier New&amp;quot;, monospace; font-weight: normal; font-size: 14px; line-height: 21px; white-space: pre;&quot;&gt;&lt;div style=&quot;&quot;&gt;&lt;font color=&quot;#999900&quot;&gt;target_experts&lt;/font&gt;&lt;/div&gt;&lt;/div&gt;" style="text;whiteSpace=wrap;html=1;align=center;" vertex="1" parent="1">
          <mxGeometry x="-1165.5" y="391" width="150" height="40" as="geometry" />
        </mxCell>
        <mxCell id="VHds4E-agZUkcuYPBKTy-43" value="&lt;div style=&quot;background-color: rgb(255, 255, 255); font-family: &amp;quot;Fira Code&amp;quot;, Menlo, Monaco, &amp;quot;Courier New&amp;quot;, monospace; font-size: 14px; line-height: 21px; white-space: pre;&quot;&gt;&lt;div style=&quot;line-height: 21px;&quot;&gt;&lt;div style=&quot;line-height: 21px;&quot;&gt;&lt;div style=&quot;line-height: 21px;&quot;&gt;user_emb_reshape&lt;/div&gt;&lt;/div&gt;&lt;/div&gt;&lt;/div&gt;" style="rounded=0;whiteSpace=wrap;html=1;" vertex="1" parent="1">
          <mxGeometry x="-465" y="733" width="145" height="35" as="geometry" />
        </mxCell>
        <mxCell id="VHds4E-agZUkcuYPBKTy-44" value="&lt;div style=&quot;background-color: rgb(255, 255, 255); font-family: &amp;quot;Fira Code&amp;quot;, Menlo, Monaco, &amp;quot;Courier New&amp;quot;, monospace; font-size: 14px; line-height: 21px; white-space: pre;&quot;&gt;&lt;div style=&quot;line-height: 21px;&quot;&gt;&lt;div style=&quot;line-height: 21px;&quot;&gt;&lt;div style=&quot;line-height: 21px;&quot;&gt;&lt;div style=&quot;line-height: 21px;&quot;&gt;seeds_emb_avg&lt;/div&gt;&lt;/div&gt;&lt;/div&gt;&lt;/div&gt;&lt;/div&gt;" style="rounded=0;whiteSpace=wrap;html=1;" vertex="1" parent="1">
          <mxGeometry x="-679" y="498" width="145" height="35" as="geometry" />
        </mxCell>
        <mxCell id="VHds4E-agZUkcuYPBKTy-45" value="&lt;div style=&quot;background-color: rgb(255, 255, 255); font-family: &amp;quot;Fira Code&amp;quot;, Menlo, Monaco, &amp;quot;Courier New&amp;quot;, monospace; font-weight: normal; font-size: 14px; line-height: 21px; white-space: pre;&quot;&gt;&lt;div style=&quot;&quot;&gt;&lt;font color=&quot;#00994d&quot;&gt;gate_input&lt;/font&gt;&lt;/div&gt;&lt;/div&gt;" style="text;whiteSpace=wrap;html=1;align=center;" vertex="1" parent="1">
          <mxGeometry x="-963" y="500" width="120" height="40" as="geometry" />
        </mxCell>
        <mxCell id="VHds4E-agZUkcuYPBKTy-46" style="edgeStyle=orthogonalEdgeStyle;rounded=0;orthogonalLoop=1;jettySize=auto;html=1;exitX=0.5;exitY=0;exitDx=0;exitDy=0;entryX=0.5;entryY=1;entryDx=0;entryDy=0;" edge="1" parent="1" source="VHds4E-agZUkcuYPBKTy-47" target="VHds4E-agZUkcuYPBKTy-55">
          <mxGeometry relative="1" as="geometry" />
        </mxCell>
        <mxCell id="VHds4E-agZUkcuYPBKTy-47" value="&lt;div style=&quot;background-color: rgb(255, 255, 255); font-family: &amp;quot;Fira Code&amp;quot;, Menlo, Monaco, &amp;quot;Courier New&amp;quot;, monospace; font-size: 14px; line-height: 21px; white-space: pre;&quot;&gt;&lt;div style=&quot;line-height: 21px;&quot;&gt;&lt;div style=&quot;line-height: 21px;&quot;&gt;&lt;div style=&quot;line-height: 21px;&quot;&gt;&lt;div style=&quot;line-height: 21px;&quot;&gt;tower_dura_3&lt;/div&gt;&lt;/div&gt;&lt;/div&gt;&lt;/div&gt;&lt;/div&gt;" style="rounded=0;whiteSpace=wrap;html=1;" vertex="1" parent="1">
          <mxGeometry x="-1028.0766666666668" y="255" width="145" height="35" as="geometry" />
        </mxCell>
        <mxCell id="VHds4E-agZUkcuYPBKTy-48" style="edgeStyle=orthogonalEdgeStyle;rounded=0;orthogonalLoop=1;jettySize=auto;html=1;exitX=0.5;exitY=0;exitDx=0;exitDy=0;entryX=0.5;entryY=1;entryDx=0;entryDy=0;" edge="1" parent="1" source="VHds4E-agZUkcuYPBKTy-49" target="VHds4E-agZUkcuYPBKTy-57">
          <mxGeometry relative="1" as="geometry" />
        </mxCell>
        <mxCell id="VHds4E-agZUkcuYPBKTy-49" value="&lt;div style=&quot;background-color: rgb(255, 255, 255); font-family: &amp;quot;Fira Code&amp;quot;, Menlo, Monaco, &amp;quot;Courier New&amp;quot;, monospace; font-size: 14px; line-height: 21px; white-space: pre;&quot;&gt;&lt;div style=&quot;line-height: 21px;&quot;&gt;&lt;div style=&quot;line-height: 21px;&quot;&gt;&lt;div style=&quot;line-height: 21px;&quot;&gt;&lt;div style=&quot;line-height: 21px;&quot;&gt;&lt;div style=&quot;line-height: 21px;&quot;&gt;tower_tower&lt;/div&gt;&lt;/div&gt;&lt;/div&gt;&lt;/div&gt;&lt;/div&gt;&lt;/div&gt;" style="rounded=0;whiteSpace=wrap;html=1;" vertex="1" parent="1">
          <mxGeometry x="-873.08" y="255" width="145" height="35" as="geometry" />
        </mxCell>
        <mxCell id="VHds4E-agZUkcuYPBKTy-50" style="edgeStyle=orthogonalEdgeStyle;rounded=0;orthogonalLoop=1;jettySize=auto;html=1;exitX=0.5;exitY=0;exitDx=0;exitDy=0;entryX=0.5;entryY=1;entryDx=0;entryDy=0;" edge="1" parent="1" source="VHds4E-agZUkcuYPBKTy-51" target="VHds4E-agZUkcuYPBKTy-59">
          <mxGeometry relative="1" as="geometry" />
        </mxCell>
        <mxCell id="VHds4E-agZUkcuYPBKTy-51" value="&lt;div style=&quot;background-color: rgb(255, 255, 255); font-family: &amp;quot;Fira Code&amp;quot;, Menlo, Monaco, &amp;quot;Courier New&amp;quot;, monospace; font-size: 14px; line-height: 21px; white-space: pre;&quot;&gt;&lt;div style=&quot;line-height: 21px;&quot;&gt;&lt;div style=&quot;line-height: 21px;&quot;&gt;&lt;div style=&quot;line-height: 21px;&quot;&gt;&lt;div style=&quot;line-height: 21px;&quot;&gt;&lt;div style=&quot;line-height: 21px;&quot;&gt;&lt;div style=&quot;line-height: 21px;&quot;&gt;tower_dura_30&lt;/div&gt;&lt;/div&gt;&lt;/div&gt;&lt;/div&gt;&lt;/div&gt;&lt;/div&gt;&lt;/div&gt;" style="rounded=0;whiteSpace=wrap;html=1;" vertex="1" parent="1">
          <mxGeometry x="-719.08" y="255" width="145" height="35" as="geometry" />
        </mxCell>
        <mxCell id="VHds4E-agZUkcuYPBKTy-52" style="edgeStyle=orthogonalEdgeStyle;rounded=0;orthogonalLoop=1;jettySize=auto;html=1;exitX=0.5;exitY=0;exitDx=0;exitDy=0;" edge="1" parent="1" source="VHds4E-agZUkcuYPBKTy-53" target="VHds4E-agZUkcuYPBKTy-61">
          <mxGeometry relative="1" as="geometry" />
        </mxCell>
        <mxCell id="VHds4E-agZUkcuYPBKTy-53" value="&lt;div style=&quot;background-color: rgb(255, 255, 255); font-family: &amp;quot;Fira Code&amp;quot;, Menlo, Monaco, &amp;quot;Courier New&amp;quot;, monospace; font-size: 14px; line-height: 21px; white-space: pre;&quot;&gt;&lt;div style=&quot;line-height: 21px;&quot;&gt;&lt;div style=&quot;line-height: 21px;&quot;&gt;&lt;div style=&quot;line-height: 21px;&quot;&gt;&lt;div style=&quot;line-height: 21px;&quot;&gt;&lt;div style=&quot;line-height: 21px;&quot;&gt;&lt;div style=&quot;line-height: 21px;&quot;&gt;&lt;div style=&quot;line-height: 21px;&quot;&gt;tower_conv&lt;/div&gt;&lt;/div&gt;&lt;/div&gt;&lt;/div&gt;&lt;/div&gt;&lt;/div&gt;&lt;/div&gt;&lt;/div&gt;" style="rounded=0;whiteSpace=wrap;html=1;" vertex="1" parent="1">
          <mxGeometry x="-561.9166666666667" y="255" width="145" height="35" as="geometry" />
        </mxCell>
        <mxCell id="VHds4E-agZUkcuYPBKTy-54" style="edgeStyle=orthogonalEdgeStyle;rounded=0;orthogonalLoop=1;jettySize=auto;html=1;exitX=0.5;exitY=0;exitDx=0;exitDy=0;entryX=0.5;entryY=1;entryDx=0;entryDy=0;" edge="1" parent="1" source="VHds4E-agZUkcuYPBKTy-55" target="VHds4E-agZUkcuYPBKTy-63">
          <mxGeometry relative="1" as="geometry" />
        </mxCell>
        <mxCell id="VHds4E-agZUkcuYPBKTy-55" value="&lt;div style=&quot;background-color: rgb(255, 255, 255); font-family: &amp;quot;Fira Code&amp;quot;, Menlo, Monaco, &amp;quot;Courier New&amp;quot;, monospace; font-size: 14px; line-height: 21px; white-space: pre;&quot;&gt;&lt;div style=&quot;line-height: 21px;&quot;&gt;&lt;div style=&quot;line-height: 21px;&quot;&gt;&lt;div style=&quot;line-height: 21px;&quot;&gt;&lt;div style=&quot;line-height: 21px;&quot;&gt;&lt;div style=&quot;line-height: 21px;&quot;&gt;&lt;div style=&quot;line-height: 21px;&quot;&gt;clip_dura_3&lt;/div&gt;&lt;/div&gt;&lt;/div&gt;&lt;/div&gt;&lt;/div&gt;&lt;/div&gt;&lt;/div&gt;" style="rounded=0;whiteSpace=wrap;html=1;" vertex="1" parent="1">
          <mxGeometry x="-1025.9966666666667" y="202" width="145" height="35" as="geometry" />
        </mxCell>
        <mxCell id="VHds4E-agZUkcuYPBKTy-56" style="edgeStyle=orthogonalEdgeStyle;rounded=0;orthogonalLoop=1;jettySize=auto;html=1;exitX=0.5;exitY=0;exitDx=0;exitDy=0;entryX=0.5;entryY=1;entryDx=0;entryDy=0;" edge="1" parent="1" source="VHds4E-agZUkcuYPBKTy-57" target="VHds4E-agZUkcuYPBKTy-65">
          <mxGeometry relative="1" as="geometry" />
        </mxCell>
        <mxCell id="VHds4E-agZUkcuYPBKTy-57" value="&lt;div style=&quot;background-color: rgb(255, 255, 255); font-family: &amp;quot;Fira Code&amp;quot;, Menlo, Monaco, &amp;quot;Courier New&amp;quot;, monospace; font-size: 14px; line-height: 21px; white-space: pre;&quot;&gt;&lt;div style=&quot;line-height: 21px;&quot;&gt;&lt;div style=&quot;line-height: 21px;&quot;&gt;&lt;div style=&quot;line-height: 21px;&quot;&gt;&lt;div style=&quot;line-height: 21px;&quot;&gt;&lt;div style=&quot;line-height: 21px;&quot;&gt;&lt;div style=&quot;line-height: 21px;&quot;&gt;clip_ctr&lt;/div&gt;&lt;/div&gt;&lt;/div&gt;&lt;/div&gt;&lt;/div&gt;&lt;/div&gt;&lt;/div&gt;" style="rounded=0;whiteSpace=wrap;html=1;" vertex="1" parent="1">
          <mxGeometry x="-873.08" y="202" width="145" height="35" as="geometry" />
        </mxCell>
        <mxCell id="VHds4E-agZUkcuYPBKTy-58" style="edgeStyle=orthogonalEdgeStyle;rounded=0;orthogonalLoop=1;jettySize=auto;html=1;exitX=0.5;exitY=0;exitDx=0;exitDy=0;entryX=0.5;entryY=1;entryDx=0;entryDy=0;" edge="1" parent="1" source="VHds4E-agZUkcuYPBKTy-59" target="VHds4E-agZUkcuYPBKTy-67">
          <mxGeometry relative="1" as="geometry" />
        </mxCell>
        <mxCell id="VHds4E-agZUkcuYPBKTy-59" value="&lt;div style=&quot;background-color: rgb(255, 255, 255); font-family: &amp;quot;Fira Code&amp;quot;, Menlo, Monaco, &amp;quot;Courier New&amp;quot;, monospace; font-size: 14px; line-height: 21px; white-space: pre;&quot;&gt;&lt;div style=&quot;line-height: 21px;&quot;&gt;&lt;div style=&quot;line-height: 21px;&quot;&gt;&lt;div style=&quot;line-height: 21px;&quot;&gt;&lt;div style=&quot;line-height: 21px;&quot;&gt;&lt;div style=&quot;line-height: 21px;&quot;&gt;&lt;div style=&quot;line-height: 21px;&quot;&gt;&lt;div style=&quot;line-height: 21px;&quot;&gt;clip_dura_30&lt;/div&gt;&lt;/div&gt;&lt;/div&gt;&lt;/div&gt;&lt;/div&gt;&lt;/div&gt;&lt;/div&gt;&lt;/div&gt;" style="rounded=0;whiteSpace=wrap;html=1;" vertex="1" parent="1">
          <mxGeometry x="-719.08" y="202" width="145" height="35" as="geometry" />
        </mxCell>
        <mxCell id="VHds4E-agZUkcuYPBKTy-60" style="edgeStyle=orthogonalEdgeStyle;rounded=0;orthogonalLoop=1;jettySize=auto;html=1;exitX=0.5;exitY=0;exitDx=0;exitDy=0;entryX=0.5;entryY=1;entryDx=0;entryDy=0;" edge="1" parent="1" source="VHds4E-agZUkcuYPBKTy-61" target="VHds4E-agZUkcuYPBKTy-69">
          <mxGeometry relative="1" as="geometry" />
        </mxCell>
        <mxCell id="VHds4E-agZUkcuYPBKTy-61" value="&lt;div style=&quot;background-color: rgb(255, 255, 255); font-family: &amp;quot;Fira Code&amp;quot;, Menlo, Monaco, &amp;quot;Courier New&amp;quot;, monospace; font-size: 14px; line-height: 21px; white-space: pre;&quot;&gt;&lt;div style=&quot;line-height: 21px;&quot;&gt;&lt;div style=&quot;line-height: 21px;&quot;&gt;&lt;div style=&quot;line-height: 21px;&quot;&gt;&lt;div style=&quot;line-height: 21px;&quot;&gt;&lt;div style=&quot;line-height: 21px;&quot;&gt;&lt;div style=&quot;line-height: 21px;&quot;&gt;&lt;div style=&quot;line-height: 21px;&quot;&gt;clip_conv&lt;/div&gt;&lt;/div&gt;&lt;/div&gt;&lt;/div&gt;&lt;/div&gt;&lt;/div&gt;&lt;/div&gt;&lt;/div&gt;" style="rounded=0;whiteSpace=wrap;html=1;" vertex="1" parent="1">
          <mxGeometry x="-561.9200000000001" y="202" width="145" height="35" as="geometry" />
        </mxCell>
        <mxCell id="VHds4E-agZUkcuYPBKTy-62" style="edgeStyle=orthogonalEdgeStyle;rounded=0;orthogonalLoop=1;jettySize=auto;html=1;exitX=0.5;exitY=0;exitDx=0;exitDy=0;entryX=0.5;entryY=1;entryDx=0;entryDy=0;" edge="1" parent="1" source="VHds4E-agZUkcuYPBKTy-63" target="VHds4E-agZUkcuYPBKTy-71">
          <mxGeometry relative="1" as="geometry">
            <mxPoint x="-950.4966666666667" y="89" as="sourcePoint" />
          </mxGeometry>
        </mxCell>
        <mxCell id="VHds4E-agZUkcuYPBKTy-63" value="&lt;div style=&quot;background-color: rgb(255, 255, 255); font-family: &amp;quot;Fira Code&amp;quot;, Menlo, Monaco, &amp;quot;Courier New&amp;quot;, monospace; font-size: 14px; line-height: 21px; white-space: pre;&quot;&gt;&lt;div style=&quot;line-height: 21px;&quot;&gt;&lt;div style=&quot;line-height: 21px;&quot;&gt;&lt;div style=&quot;line-height: 21px;&quot;&gt;&lt;div style=&quot;line-height: 21px;&quot;&gt;&lt;div style=&quot;line-height: 21px;&quot;&gt;&lt;div style=&quot;line-height: 21px;&quot;&gt;&lt;div style=&quot;line-height: 21px;&quot;&gt;sigmoid_dura_3&lt;/div&gt;&lt;/div&gt;&lt;/div&gt;&lt;/div&gt;&lt;/div&gt;&lt;/div&gt;&lt;/div&gt;&lt;/div&gt;" style="rounded=0;whiteSpace=wrap;html=1;" vertex="1" parent="1">
          <mxGeometry x="-1025.9966666666667" y="150" width="145" height="35" as="geometry" />
        </mxCell>
        <mxCell id="VHds4E-agZUkcuYPBKTy-64" style="edgeStyle=orthogonalEdgeStyle;rounded=0;orthogonalLoop=1;jettySize=auto;html=1;exitX=0.5;exitY=0;exitDx=0;exitDy=0;entryX=0.5;entryY=1;entryDx=0;entryDy=0;" edge="1" parent="1" source="VHds4E-agZUkcuYPBKTy-65" target="VHds4E-agZUkcuYPBKTy-73">
          <mxGeometry relative="1" as="geometry">
            <mxPoint x="-797.5799999999999" y="129" as="sourcePoint" />
          </mxGeometry>
        </mxCell>
        <mxCell id="VHds4E-agZUkcuYPBKTy-65" value="&lt;div style=&quot;background-color: rgb(255, 255, 255); font-family: &amp;quot;Fira Code&amp;quot;, Menlo, Monaco, &amp;quot;Courier New&amp;quot;, monospace; font-size: 14px; line-height: 21px; white-space: pre;&quot;&gt;&lt;div style=&quot;line-height: 21px;&quot;&gt;&lt;div style=&quot;line-height: 21px;&quot;&gt;&lt;div style=&quot;line-height: 21px;&quot;&gt;&lt;div style=&quot;line-height: 21px;&quot;&gt;&lt;div style=&quot;line-height: 21px;&quot;&gt;&lt;div style=&quot;line-height: 21px;&quot;&gt;&lt;div style=&quot;line-height: 21px;&quot;&gt;sigmoid_ctr&lt;/div&gt;&lt;/div&gt;&lt;/div&gt;&lt;/div&gt;&lt;/div&gt;&lt;/div&gt;&lt;/div&gt;&lt;/div&gt;" style="rounded=0;whiteSpace=wrap;html=1;" vertex="1" parent="1">
          <mxGeometry x="-873.08" y="150" width="145" height="35" as="geometry" />
        </mxCell>
        <mxCell id="VHds4E-agZUkcuYPBKTy-66" style="edgeStyle=orthogonalEdgeStyle;rounded=0;orthogonalLoop=1;jettySize=auto;html=1;entryX=0.5;entryY=1;entryDx=0;entryDy=0;exitX=0.5;exitY=0;exitDx=0;exitDy=0;" edge="1" parent="1" source="VHds4E-agZUkcuYPBKTy-67" target="VHds4E-agZUkcuYPBKTy-75">
          <mxGeometry relative="1" as="geometry">
            <mxPoint x="-627" y="129" as="sourcePoint" />
          </mxGeometry>
        </mxCell>
        <mxCell id="VHds4E-agZUkcuYPBKTy-67" value="&lt;div style=&quot;background-color: rgb(255, 255, 255); font-family: &amp;quot;Fira Code&amp;quot;, Menlo, Monaco, &amp;quot;Courier New&amp;quot;, monospace; font-size: 14px; line-height: 21px; white-space: pre;&quot;&gt;&lt;div style=&quot;line-height: 21px;&quot;&gt;&lt;div style=&quot;line-height: 21px;&quot;&gt;&lt;div style=&quot;line-height: 21px;&quot;&gt;&lt;div style=&quot;line-height: 21px;&quot;&gt;&lt;div style=&quot;line-height: 21px;&quot;&gt;&lt;div style=&quot;line-height: 21px;&quot;&gt;&lt;div style=&quot;line-height: 21px;&quot;&gt;&lt;div style=&quot;line-height: 21px;&quot;&gt;sigmoid_dura_30&lt;/div&gt;&lt;/div&gt;&lt;/div&gt;&lt;/div&gt;&lt;/div&gt;&lt;/div&gt;&lt;/div&gt;&lt;/div&gt;&lt;/div&gt;" style="rounded=0;whiteSpace=wrap;html=1;" vertex="1" parent="1">
          <mxGeometry x="-719.08" y="150" width="145" height="35" as="geometry" />
        </mxCell>
        <mxCell id="VHds4E-agZUkcuYPBKTy-68" style="edgeStyle=orthogonalEdgeStyle;rounded=0;orthogonalLoop=1;jettySize=auto;html=1;exitX=0.5;exitY=0;exitDx=0;exitDy=0;entryX=0.5;entryY=1;entryDx=0;entryDy=0;" edge="1" parent="1" source="VHds4E-agZUkcuYPBKTy-69" target="VHds4E-agZUkcuYPBKTy-77">
          <mxGeometry relative="1" as="geometry">
            <mxPoint x="-463.4200000000001" y="129" as="sourcePoint" />
          </mxGeometry>
        </mxCell>
        <mxCell id="VHds4E-agZUkcuYPBKTy-69" value="&lt;div style=&quot;background-color: rgb(255, 255, 255); font-family: &amp;quot;Fira Code&amp;quot;, Menlo, Monaco, &amp;quot;Courier New&amp;quot;, monospace; font-size: 14px; line-height: 21px; white-space: pre;&quot;&gt;&lt;div style=&quot;line-height: 21px;&quot;&gt;&lt;div style=&quot;line-height: 21px;&quot;&gt;&lt;div style=&quot;line-height: 21px;&quot;&gt;&lt;div style=&quot;line-height: 21px;&quot;&gt;&lt;div style=&quot;line-height: 21px;&quot;&gt;&lt;div style=&quot;line-height: 21px;&quot;&gt;&lt;div style=&quot;line-height: 21px;&quot;&gt;&lt;div style=&quot;line-height: 21px;&quot;&gt;sigmoid_conv&lt;/div&gt;&lt;/div&gt;&lt;/div&gt;&lt;/div&gt;&lt;/div&gt;&lt;/div&gt;&lt;/div&gt;&lt;/div&gt;&lt;/div&gt;" style="rounded=0;whiteSpace=wrap;html=1;" vertex="1" parent="1">
          <mxGeometry x="-561.9200000000001" y="150" width="145" height="35" as="geometry" />
        </mxCell>
        <mxCell id="VHds4E-agZUkcuYPBKTy-70" style="edgeStyle=orthogonalEdgeStyle;rounded=0;orthogonalLoop=1;jettySize=auto;html=1;exitX=0.5;exitY=0;exitDx=0;exitDy=0;" edge="1" parent="1" source="VHds4E-agZUkcuYPBKTy-71" target="VHds4E-agZUkcuYPBKTy-78">
          <mxGeometry relative="1" as="geometry" />
        </mxCell>
        <mxCell id="VHds4E-agZUkcuYPBKTy-71" value="&lt;div style=&quot;background-color: rgb(255, 255, 255); font-family: &amp;quot;Fira Code&amp;quot;, Menlo, Monaco, &amp;quot;Courier New&amp;quot;, monospace; font-size: 14px; line-height: 21px; white-space: pre;&quot;&gt;&lt;div style=&quot;line-height: 21px;&quot;&gt;&lt;div style=&quot;line-height: 21px;&quot;&gt;&lt;div style=&quot;line-height: 21px;&quot;&gt;&lt;div style=&quot;line-height: 21px;&quot;&gt;&lt;div style=&quot;line-height: 21px;&quot;&gt;&lt;div style=&quot;line-height: 21px;&quot;&gt;&lt;div style=&quot;line-height: 21px;&quot;&gt;&lt;div style=&quot;line-height: 21px;&quot;&gt;loss_dura_3&lt;/div&gt;&lt;/div&gt;&lt;/div&gt;&lt;/div&gt;&lt;/div&gt;&lt;/div&gt;&lt;/div&gt;&lt;/div&gt;&lt;/div&gt;" style="rounded=0;whiteSpace=wrap;html=1;" vertex="1" parent="1">
          <mxGeometry x="-1025.9966666666667" y="89" width="145" height="35" as="geometry" />
        </mxCell>
        <mxCell id="VHds4E-agZUkcuYPBKTy-72" style="edgeStyle=orthogonalEdgeStyle;rounded=0;orthogonalLoop=1;jettySize=auto;html=1;exitX=0.5;exitY=0;exitDx=0;exitDy=0;entryX=0.5;entryY=1;entryDx=0;entryDy=0;" edge="1" parent="1" source="VHds4E-agZUkcuYPBKTy-73" target="VHds4E-agZUkcuYPBKTy-78">
          <mxGeometry relative="1" as="geometry">
            <mxPoint x="-715.9966666666669" y="44" as="targetPoint" />
          </mxGeometry>
        </mxCell>
        <mxCell id="VHds4E-agZUkcuYPBKTy-73" value="&lt;div style=&quot;background-color: rgb(255, 255, 255); font-family: &amp;quot;Fira Code&amp;quot;, Menlo, Monaco, &amp;quot;Courier New&amp;quot;, monospace; font-size: 14px; line-height: 21px; white-space: pre;&quot;&gt;&lt;div style=&quot;line-height: 21px;&quot;&gt;&lt;div style=&quot;line-height: 21px;&quot;&gt;&lt;div style=&quot;line-height: 21px;&quot;&gt;&lt;div style=&quot;line-height: 21px;&quot;&gt;&lt;div style=&quot;line-height: 21px;&quot;&gt;&lt;div style=&quot;line-height: 21px;&quot;&gt;&lt;div style=&quot;line-height: 21px;&quot;&gt;&lt;div style=&quot;line-height: 21px;&quot;&gt;loss_ctr&lt;/div&gt;&lt;/div&gt;&lt;/div&gt;&lt;/div&gt;&lt;/div&gt;&lt;/div&gt;&lt;/div&gt;&lt;/div&gt;&lt;/div&gt;" style="rounded=0;whiteSpace=wrap;html=1;" vertex="1" parent="1">
          <mxGeometry x="-873.08" y="89" width="145" height="35" as="geometry" />
        </mxCell>
        <mxCell id="VHds4E-agZUkcuYPBKTy-74" style="edgeStyle=orthogonalEdgeStyle;rounded=0;orthogonalLoop=1;jettySize=auto;html=1;exitX=0.5;exitY=0;exitDx=0;exitDy=0;" edge="1" parent="1" source="VHds4E-agZUkcuYPBKTy-75" target="VHds4E-agZUkcuYPBKTy-78">
          <mxGeometry relative="1" as="geometry" />
        </mxCell>
        <mxCell id="VHds4E-agZUkcuYPBKTy-75" value="&lt;div style=&quot;background-color: rgb(255, 255, 255); font-family: &amp;quot;Fira Code&amp;quot;, Menlo, Monaco, &amp;quot;Courier New&amp;quot;, monospace; font-size: 14px; line-height: 21px; white-space: pre;&quot;&gt;&lt;div style=&quot;line-height: 21px;&quot;&gt;&lt;div style=&quot;line-height: 21px;&quot;&gt;&lt;div style=&quot;line-height: 21px;&quot;&gt;&lt;div style=&quot;line-height: 21px;&quot;&gt;&lt;div style=&quot;line-height: 21px;&quot;&gt;&lt;div style=&quot;line-height: 21px;&quot;&gt;&lt;div style=&quot;line-height: 21px;&quot;&gt;&lt;div style=&quot;line-height: 21px;&quot;&gt;&lt;div style=&quot;line-height: 21px;&quot;&gt;loss_dura_30&lt;/div&gt;&lt;/div&gt;&lt;/div&gt;&lt;/div&gt;&lt;/div&gt;&lt;/div&gt;&lt;/div&gt;&lt;/div&gt;&lt;/div&gt;&lt;/div&gt;" style="rounded=0;whiteSpace=wrap;html=1;" vertex="1" parent="1">
          <mxGeometry x="-719.08" y="89" width="145" height="35" as="geometry" />
        </mxCell>
        <mxCell id="VHds4E-agZUkcuYPBKTy-76" style="edgeStyle=orthogonalEdgeStyle;rounded=0;orthogonalLoop=1;jettySize=auto;html=1;exitX=0.5;exitY=0;exitDx=0;exitDy=0;entryX=0.5;entryY=1;entryDx=0;entryDy=0;" edge="1" parent="1" source="VHds4E-agZUkcuYPBKTy-77" target="VHds4E-agZUkcuYPBKTy-78">
          <mxGeometry relative="1" as="geometry" />
        </mxCell>
        <mxCell id="VHds4E-agZUkcuYPBKTy-77" value="&lt;div style=&quot;background-color: rgb(255, 255, 255); font-family: &amp;quot;Fira Code&amp;quot;, Menlo, Monaco, &amp;quot;Courier New&amp;quot;, monospace; font-size: 14px; line-height: 21px; white-space: pre;&quot;&gt;&lt;div style=&quot;line-height: 21px;&quot;&gt;&lt;div style=&quot;line-height: 21px;&quot;&gt;&lt;div style=&quot;line-height: 21px;&quot;&gt;&lt;div style=&quot;line-height: 21px;&quot;&gt;&lt;div style=&quot;line-height: 21px;&quot;&gt;&lt;div style=&quot;line-height: 21px;&quot;&gt;&lt;div style=&quot;line-height: 21px;&quot;&gt;&lt;div style=&quot;line-height: 21px;&quot;&gt;&lt;div style=&quot;line-height: 21px;&quot;&gt;loss_conv&lt;/div&gt;&lt;/div&gt;&lt;/div&gt;&lt;/div&gt;&lt;/div&gt;&lt;/div&gt;&lt;/div&gt;&lt;/div&gt;&lt;/div&gt;&lt;/div&gt;" style="rounded=0;whiteSpace=wrap;html=1;" vertex="1" parent="1">
          <mxGeometry x="-561.9200000000001" y="89" width="145" height="35" as="geometry" />
        </mxCell>
        <mxCell id="VHds4E-agZUkcuYPBKTy-78" value="&lt;div style=&quot;background-color: rgb(255, 255, 255); font-family: &amp;quot;Fira Code&amp;quot;, Menlo, Monaco, &amp;quot;Courier New&amp;quot;, monospace; font-size: 14px; line-height: 21px; white-space: pre;&quot;&gt;&lt;div style=&quot;line-height: 21px;&quot;&gt;&lt;div style=&quot;line-height: 21px;&quot;&gt;&lt;div style=&quot;line-height: 21px;&quot;&gt;&lt;div style=&quot;line-height: 21px;&quot;&gt;&lt;font color=&quot;#fc8d6a&quot;&gt;UWL&lt;/font&gt;&lt;/div&gt;&lt;/div&gt;&lt;/div&gt;&lt;/div&gt;&lt;/div&gt;" style="rounded=0;whiteSpace=wrap;html=1;" vertex="1" parent="1">
          <mxGeometry x="-780.4966666666667" y="14" width="145" height="35" as="geometry" />
        </mxCell>
        <mxCell id="VHds4E-agZUkcuYPBKTy-79" style="edgeStyle=orthogonalEdgeStyle;rounded=0;orthogonalLoop=1;jettySize=auto;html=1;" edge="1" parent="1" source="VHds4E-agZUkcuYPBKTy-80" target="VHds4E-agZUkcuYPBKTy-78">
          <mxGeometry relative="1" as="geometry" />
        </mxCell>
        <mxCell id="VHds4E-agZUkcuYPBKTy-80" value="&lt;div style=&quot;background-color: rgb(255, 255, 255); font-family: &amp;quot;Fira Code&amp;quot;, Menlo, Monaco, &amp;quot;Courier New&amp;quot;, monospace; font-size: 14px; line-height: 21px; white-space: pre;&quot;&gt;&lt;div style=&quot;line-height: 21px;&quot;&gt;&lt;div style=&quot;line-height: 21px;&quot;&gt;&lt;div style=&quot;line-height: 21px;&quot;&gt;&lt;div style=&quot;line-height: 21px;&quot;&gt;&lt;div style=&quot;line-height: 21px;&quot;&gt;&lt;div style=&quot;line-height: 21px;&quot;&gt;&lt;div style=&quot;line-height: 21px;&quot;&gt;&lt;div style=&quot;line-height: 21px;&quot;&gt;&lt;div style=&quot;line-height: 21px;&quot;&gt;&lt;div style=&quot;line-height: 21px;&quot;&gt;loss_belta&lt;/div&gt;&lt;/div&gt;&lt;/div&gt;&lt;/div&gt;&lt;/div&gt;&lt;/div&gt;&lt;/div&gt;&lt;/div&gt;&lt;/div&gt;&lt;/div&gt;&lt;/div&gt;" style="rounded=0;whiteSpace=wrap;html=1;" vertex="1" parent="1">
          <mxGeometry x="-580.0000000000001" y="14" width="145" height="35" as="geometry" />
        </mxCell>
        <mxCell id="VHds4E-agZUkcuYPBKTy-81" value="&lt;div style=&quot;background-color: rgb(255, 255, 255); font-family: &amp;quot;Fira Code&amp;quot;, Menlo, Monaco, &amp;quot;Courier New&amp;quot;, monospace; font-weight: normal; font-size: 14px; line-height: 21px; white-space: pre;&quot;&gt;&lt;div style=&quot;&quot;&gt;&lt;font color=&quot;#fc8d6a&quot;&gt;_q_result&lt;/font&gt;&lt;/div&gt;&lt;/div&gt;" style="text;whiteSpace=wrap;html=1;" vertex="1" parent="1">
          <mxGeometry x="-1111" y="150" width="110" height="40" as="geometry" />
        </mxCell>
        <mxCell id="VHds4E-agZUkcuYPBKTy-82" style="edgeStyle=orthogonalEdgeStyle;rounded=0;orthogonalLoop=1;jettySize=auto;html=1;entryX=0.5;entryY=1;entryDx=0;entryDy=0;" edge="1" parent="1" source="VHds4E-agZUkcuYPBKTy-83" target="VHds4E-agZUkcuYPBKTy-47">
          <mxGeometry relative="1" as="geometry" />
        </mxCell>
        <mxCell id="VHds4E-agZUkcuYPBKTy-83" value="&lt;div style=&quot;background-color: rgb(255, 255, 255); font-family: &amp;quot;Fira Code&amp;quot;, Menlo, Monaco, &amp;quot;Courier New&amp;quot;, monospace; font-size: 14px; line-height: 21px; white-space: pre;&quot;&gt;&lt;div style=&quot;line-height: 21px;&quot;&gt;&lt;div style=&quot;line-height: 21px;&quot;&gt;gate_net&lt;/div&gt;&lt;/div&gt;&lt;/div&gt;" style="rounded=1;whiteSpace=wrap;html=1;fillColor=none;strokeColor=#FC8D6A;" vertex="1" parent="1">
          <mxGeometry x="-1003.5" y="329" width="94" height="35" as="geometry" />
        </mxCell>
        <mxCell id="VHds4E-agZUkcuYPBKTy-84" style="edgeStyle=orthogonalEdgeStyle;rounded=0;orthogonalLoop=1;jettySize=auto;html=1;exitX=0.5;exitY=0;exitDx=0;exitDy=0;entryX=0.5;entryY=1;entryDx=0;entryDy=0;" edge="1" parent="1" source="VHds4E-agZUkcuYPBKTy-85" target="VHds4E-agZUkcuYPBKTy-49">
          <mxGeometry relative="1" as="geometry" />
        </mxCell>
        <mxCell id="VHds4E-agZUkcuYPBKTy-85" value="&lt;div style=&quot;background-color: rgb(255, 255, 255); font-family: &amp;quot;Fira Code&amp;quot;, Menlo, Monaco, &amp;quot;Courier New&amp;quot;, monospace; font-size: 14px; line-height: 21px; white-space: pre;&quot;&gt;&lt;div style=&quot;line-height: 21px;&quot;&gt;&lt;div style=&quot;line-height: 21px;&quot;&gt;gate_net&lt;/div&gt;&lt;/div&gt;&lt;/div&gt;" style="rounded=1;whiteSpace=wrap;html=1;fillColor=none;strokeColor=#FC8D6A;" vertex="1" parent="1">
          <mxGeometry x="-848.5" y="328" width="94" height="35" as="geometry" />
        </mxCell>
        <mxCell id="VHds4E-agZUkcuYPBKTy-86" style="edgeStyle=orthogonalEdgeStyle;rounded=0;orthogonalLoop=1;jettySize=auto;html=1;exitX=0.5;exitY=0;exitDx=0;exitDy=0;entryX=0.5;entryY=1;entryDx=0;entryDy=0;" edge="1" parent="1" source="VHds4E-agZUkcuYPBKTy-87" target="VHds4E-agZUkcuYPBKTy-51">
          <mxGeometry relative="1" as="geometry" />
        </mxCell>
        <mxCell id="VHds4E-agZUkcuYPBKTy-87" value="&lt;div style=&quot;background-color: rgb(255, 255, 255); font-family: &amp;quot;Fira Code&amp;quot;, Menlo, Monaco, &amp;quot;Courier New&amp;quot;, monospace; font-size: 14px; line-height: 21px; white-space: pre;&quot;&gt;&lt;div style=&quot;line-height: 21px;&quot;&gt;&lt;div style=&quot;line-height: 21px;&quot;&gt;gate_net&lt;/div&gt;&lt;/div&gt;&lt;/div&gt;" style="rounded=1;whiteSpace=wrap;html=1;fillColor=none;strokeColor=#FC8D6A;" vertex="1" parent="1">
          <mxGeometry x="-693.5" y="328" width="94" height="35" as="geometry" />
        </mxCell>
        <mxCell id="VHds4E-agZUkcuYPBKTy-88" style="edgeStyle=orthogonalEdgeStyle;rounded=0;orthogonalLoop=1;jettySize=auto;html=1;exitX=0.5;exitY=0;exitDx=0;exitDy=0;entryX=0.5;entryY=1;entryDx=0;entryDy=0;" edge="1" parent="1" source="VHds4E-agZUkcuYPBKTy-89" target="VHds4E-agZUkcuYPBKTy-53">
          <mxGeometry relative="1" as="geometry" />
        </mxCell>
        <mxCell id="VHds4E-agZUkcuYPBKTy-89" value="&lt;div style=&quot;background-color: rgb(255, 255, 255); font-family: &amp;quot;Fira Code&amp;quot;, Menlo, Monaco, &amp;quot;Courier New&amp;quot;, monospace; font-size: 14px; line-height: 21px; white-space: pre;&quot;&gt;&lt;div style=&quot;line-height: 21px;&quot;&gt;&lt;div style=&quot;line-height: 21px;&quot;&gt;gate_net&lt;/div&gt;&lt;/div&gt;&lt;/div&gt;" style="rounded=1;whiteSpace=wrap;html=1;fillColor=none;strokeColor=#FC8D6A;" vertex="1" parent="1">
          <mxGeometry x="-536.5" y="329" width="94" height="35" as="geometry" />
        </mxCell>
        <mxCell id="VHds4E-agZUkcuYPBKTy-90" style="rounded=0;orthogonalLoop=1;jettySize=auto;html=1;exitX=1;exitY=0;exitDx=0;exitDy=0;entryX=0.005;entryY=0.924;entryDx=0;entryDy=0;entryPerimeter=0;endArrow=none;endFill=0;" edge="1" parent="1" source="VHds4E-agZUkcuYPBKTy-89" target="VHds4E-agZUkcuYPBKTy-93">
          <mxGeometry relative="1" as="geometry" />
        </mxCell>
        <mxCell id="VHds4E-agZUkcuYPBKTy-91" value="" style="group;flipH=1;" vertex="1" connectable="0" parent="1">
          <mxGeometry x="-400" y="70" width="387.5" height="232" as="geometry" />
        </mxCell>
        <mxCell id="VHds4E-agZUkcuYPBKTy-92" value="&lt;div style=&quot;background-color: rgb(255, 255, 255); font-family: &amp;quot;Fira Code&amp;quot;, Menlo, Monaco, &amp;quot;Courier New&amp;quot;, monospace; line-height: 21px; white-space-collapse: preserve; font-size: 11px;&quot;&gt;&lt;font style=&quot;font-size: 11px;&quot;&gt;elementwise_mul&lt;/font&gt;&lt;/div&gt;" style="text;html=1;align=center;verticalAlign=middle;resizable=0;points=[];autosize=1;strokeColor=none;fillColor=none;fontSize=11;" vertex="1" parent="VHds4E-agZUkcuYPBKTy-91">
          <mxGeometry x="159.77173913043475" y="67.6063953488372" width="120" height="30" as="geometry" />
        </mxCell>
        <mxCell id="VHds4E-agZUkcuYPBKTy-93" value="" style="rounded=1;whiteSpace=wrap;html=1;fillColor=none;strokeColor=#f8cecc;strokeWidth=3;fontSize=11;" vertex="1" parent="VHds4E-agZUkcuYPBKTy-91">
          <mxGeometry width="387.5" height="232" as="geometry" />
        </mxCell>
        <mxCell id="VHds4E-agZUkcuYPBKTy-94" value="&lt;font style=&quot;font-size: 14px;&quot;&gt;&lt;b style=&quot;font-size: 14px;&quot;&gt;gate_net&lt;/b&gt;&lt;/font&gt;" style="text;html=1;align=center;verticalAlign=middle;resizable=0;points=[];autosize=1;strokeColor=none;fillColor=none;fontSize=14;" vertex="1" parent="VHds4E-agZUkcuYPBKTy-91">
          <mxGeometry x="22.33260869565213" y="21.129418604651164" width="80" height="30" as="geometry" />
        </mxCell>
        <mxCell id="VHds4E-agZUkcuYPBKTy-95" style="edgeStyle=orthogonalEdgeStyle;rounded=0;orthogonalLoop=1;jettySize=auto;html=1;fontSize=11;" edge="1" parent="VHds4E-agZUkcuYPBKTy-91" source="VHds4E-agZUkcuYPBKTy-96" target="VHds4E-agZUkcuYPBKTy-98">
          <mxGeometry relative="1" as="geometry" />
        </mxCell>
        <mxCell id="VHds4E-agZUkcuYPBKTy-96" value="&lt;div style=&quot;background-color: rgb(255, 255, 255); font-family: &amp;quot;Fira Code&amp;quot;, Menlo, Monaco, &amp;quot;Courier New&amp;quot;, monospace; font-weight: normal; font-size: 11px; line-height: 21px; white-space: pre;&quot;&gt;&lt;div style=&quot;font-size: 11px;&quot;&gt;&lt;font style=&quot;font-size: 11px;&quot; color=&quot;#00994d&quot;&gt;gate_input&lt;/font&gt;&lt;/div&gt;&lt;/div&gt;" style="text;whiteSpace=wrap;html=1;align=center;strokeColor=default;fontSize=11;" vertex="1" parent="VHds4E-agZUkcuYPBKTy-91">
          <mxGeometry x="250.19021739130437" y="196.35058139534885" width="109.51086956521739" height="28.406976744186046" as="geometry" />
        </mxCell>
        <mxCell id="VHds4E-agZUkcuYPBKTy-97" style="edgeStyle=orthogonalEdgeStyle;rounded=0;orthogonalLoop=1;jettySize=auto;html=1;exitX=0.5;exitY=0;exitDx=0;exitDy=0;entryX=0.5;entryY=1;entryDx=0;entryDy=0;fontSize=11;" edge="1" parent="VHds4E-agZUkcuYPBKTy-91" source="VHds4E-agZUkcuYPBKTy-98" target="VHds4E-agZUkcuYPBKTy-99">
          <mxGeometry relative="1" as="geometry" />
        </mxCell>
        <mxCell id="VHds4E-agZUkcuYPBKTy-98" value="&lt;div style=&quot;background-color: rgb(255, 255, 255); font-family: &amp;quot;Fira Code&amp;quot;, Menlo, Monaco, &amp;quot;Courier New&amp;quot;, monospace; font-size: 11px; line-height: 21px; white-space: pre;&quot;&gt;&lt;div style=&quot;line-height: 21px; font-size: 11px;&quot;&gt;&lt;div style=&quot;line-height: 21px; font-size: 11px;&quot;&gt;deep_net &amp;amp; fc&lt;/div&gt;&lt;/div&gt;&lt;/div&gt;" style="rounded=1;whiteSpace=wrap;html=1;fontSize=11;" vertex="1" parent="VHds4E-agZUkcuYPBKTy-91">
          <mxGeometry x="250.19021739130437" y="150.89941860465115" width="109.51086956521739" height="28.406976744186046" as="geometry" />
        </mxCell>
        <mxCell id="VHds4E-agZUkcuYPBKTy-99" value="&lt;div style=&quot;color: rgb(0, 0, 0); background-color: rgb(255, 255, 255); font-family: &amp;quot;Fira Code&amp;quot;, Menlo, Monaco, &amp;quot;Courier New&amp;quot;, monospace; font-weight: normal; font-size: 11px; line-height: 21px; white-space: pre;&quot;&gt;&lt;div style=&quot;font-size: 11px;&quot;&gt;&lt;span style=&quot;color: rgb(0, 0, 0); font-size: 11px;&quot;&gt;cur_gate&lt;/span&gt;&lt;/div&gt;&lt;/div&gt;" style="text;whiteSpace=wrap;html=1;strokeColor=default;align=center;fontSize=11;" vertex="1" parent="VHds4E-agZUkcuYPBKTy-91">
          <mxGeometry x="250.19021739130437" y="94.63662790697671" width="109.51086956521739" height="28.406976744186046" as="geometry" />
        </mxCell>
        <mxCell id="VHds4E-agZUkcuYPBKTy-100" style="edgeStyle=orthogonalEdgeStyle;rounded=0;orthogonalLoop=1;jettySize=auto;html=1;exitX=0.5;exitY=0;exitDx=0;exitDy=0;entryX=0;entryY=0.5;entryDx=0;entryDy=0;" edge="1" parent="VHds4E-agZUkcuYPBKTy-91" source="VHds4E-agZUkcuYPBKTy-101" target="VHds4E-agZUkcuYPBKTy-113">
          <mxGeometry relative="1" as="geometry" />
        </mxCell>
        <mxCell id="VHds4E-agZUkcuYPBKTy-101" value="&lt;div style=&quot;color: rgb(0, 0, 0); background-color: rgb(255, 255, 255); font-family: &amp;quot;Fira Code&amp;quot;, Menlo, Monaco, &amp;quot;Courier New&amp;quot;, monospace; font-weight: normal; font-size: 11px; line-height: 21px; white-space: pre;&quot;&gt;&lt;div style=&quot;line-height: 21px; font-size: 11px;&quot;&gt;cur_expert&lt;/div&gt;&lt;/div&gt;" style="text;whiteSpace=wrap;html=1;strokeColor=default;align=center;fontSize=11;" vertex="1" parent="VHds4E-agZUkcuYPBKTy-91">
          <mxGeometry x="69.07608695652173" y="90.57848837209303" width="109.51086956521739" height="28.406976744186046" as="geometry" />
        </mxCell>
        <mxCell id="VHds4E-agZUkcuYPBKTy-102" style="edgeStyle=orthogonalEdgeStyle;rounded=0;orthogonalLoop=1;jettySize=auto;html=1;exitX=0.5;exitY=0;exitDx=0;exitDy=0;entryX=0.5;entryY=1;entryDx=0;entryDy=0;fontSize=11;" edge="1" parent="VHds4E-agZUkcuYPBKTy-91" source="VHds4E-agZUkcuYPBKTy-103" target="VHds4E-agZUkcuYPBKTy-101">
          <mxGeometry relative="1" as="geometry">
            <Array as="points">
              <mxPoint x="178.58695652173913" y="137.15988372093022" />
              <mxPoint x="123.83152173913044" y="137.15988372093022" />
            </Array>
          </mxGeometry>
        </mxCell>
        <mxCell id="VHds4E-agZUkcuYPBKTy-103" value="&lt;div style=&quot;color: rgb(0, 0, 0); font-family: &amp;quot;Fira Code&amp;quot;, Menlo, Monaco, &amp;quot;Courier New&amp;quot;, monospace; font-weight: normal; font-size: 11px; line-height: 21px; white-space: pre;&quot;&gt;&lt;div style=&quot;line-height: 21px; font-size: 11px;&quot;&gt;share_concate&lt;span style=&quot;background-color: rgb(255, 255, 255);&quot;&gt;&lt;br style=&quot;font-size: 11px;&quot;&gt;&lt;/span&gt;&lt;/div&gt;&lt;/div&gt;" style="text;whiteSpace=wrap;html=1;align=center;strokeColor=default;fontSize=11;" vertex="1" parent="VHds4E-agZUkcuYPBKTy-91">
          <mxGeometry x="123.83152173913042" y="152.52267441860462" width="109.51086956521739" height="25.972093023255812" as="geometry" />
        </mxCell>
        <mxCell id="VHds4E-agZUkcuYPBKTy-104" style="edgeStyle=orthogonalEdgeStyle;rounded=0;orthogonalLoop=1;jettySize=auto;html=1;exitX=0.5;exitY=0;exitDx=0;exitDy=0;entryX=0.5;entryY=1;entryDx=0;entryDy=0;fontSize=11;" edge="1" parent="VHds4E-agZUkcuYPBKTy-91" source="VHds4E-agZUkcuYPBKTy-106" target="VHds4E-agZUkcuYPBKTy-103">
          <mxGeometry relative="1" as="geometry" />
        </mxCell>
        <mxCell id="VHds4E-agZUkcuYPBKTy-105" value="" style="edgeStyle=orthogonalEdgeStyle;rounded=0;orthogonalLoop=1;jettySize=auto;html=1;fontSize=11;" edge="1" parent="VHds4E-agZUkcuYPBKTy-91" source="VHds4E-agZUkcuYPBKTy-106" target="VHds4E-agZUkcuYPBKTy-103">
          <mxGeometry relative="1" as="geometry" />
        </mxCell>
        <mxCell id="VHds4E-agZUkcuYPBKTy-106" value="&lt;div style=&quot;background-color: rgb(255, 255, 255); font-family: &amp;quot;Fira Code&amp;quot;, Menlo, Monaco, &amp;quot;Courier New&amp;quot;, monospace; font-weight: normal; font-size: 11px; line-height: 21px; white-space: pre;&quot;&gt;&lt;div style=&quot;line-height: 21px; font-size: 11px;&quot;&gt;&lt;div style=&quot;line-height: 21px; font-size: 11px;&quot;&gt;&lt;div style=&quot;line-height: 21px; font-size: 11px;&quot;&gt;share_experts&lt;/div&gt;&lt;/div&gt;&lt;/div&gt;&lt;/div&gt;" style="text;whiteSpace=wrap;html=1;align=center;strokeColor=default;fontColor=#0000FF;fontSize=11;" vertex="1" parent="VHds4E-agZUkcuYPBKTy-91">
          <mxGeometry x="123.83152173913042" y="194.72732558139535" width="109.51086956521739" height="28.406976744186046" as="geometry" />
        </mxCell>
        <mxCell id="VHds4E-agZUkcuYPBKTy-107" style="edgeStyle=orthogonalEdgeStyle;rounded=0;orthogonalLoop=1;jettySize=auto;html=1;exitX=0.5;exitY=0;exitDx=0;exitDy=0;fontSize=11;" edge="1" parent="VHds4E-agZUkcuYPBKTy-91" source="VHds4E-agZUkcuYPBKTy-108" target="VHds4E-agZUkcuYPBKTy-101">
          <mxGeometry relative="1" as="geometry">
            <Array as="points">
              <mxPoint x="60.65217391304344" y="137.15988372093022" />
              <mxPoint x="123.83152173913044" y="137.15988372093022" />
            </Array>
          </mxGeometry>
        </mxCell>
        <mxCell id="VHds4E-agZUkcuYPBKTy-108" value="&lt;div style=&quot;font-family: &amp;quot;Fira Code&amp;quot;, Menlo, Monaco, &amp;quot;Courier New&amp;quot;, monospace; font-weight: normal; line-height: 21px; white-space: pre; font-size: 11px;&quot;&gt;&lt;div style=&quot;line-height: 21px; font-size: 11px;&quot;&gt;&lt;div style=&quot;line-height: 21px; font-size: 11px;&quot;&gt;&lt;div style=&quot;line-height: 21px; font-size: 11px;&quot;&gt;&lt;div style=&quot;line-height: 21px; font-size: 11px;&quot;&gt;&lt;font color=&quot;#999900&quot; style=&quot;font-size: 11px;&quot;&gt;target_expert_i&lt;/font&gt;&lt;/div&gt;&lt;/div&gt;&lt;/div&gt;&lt;/div&gt;&lt;/div&gt;" style="text;whiteSpace=wrap;html=1;align=center;strokeColor=default;fontSize=11;" vertex="1" parent="VHds4E-agZUkcuYPBKTy-91">
          <mxGeometry x="9.266304347826036" y="152.52267441860462" width="106.1413043478261" height="25.972093023255812" as="geometry" />
        </mxCell>
        <mxCell id="VHds4E-agZUkcuYPBKTy-109" style="edgeStyle=orthogonalEdgeStyle;rounded=0;orthogonalLoop=1;jettySize=auto;html=1;exitX=0.5;exitY=0;exitDx=0;exitDy=0;entryX=1;entryY=0.5;entryDx=0;entryDy=0;fontSize=11;" edge="1" parent="VHds4E-agZUkcuYPBKTy-91" source="VHds4E-agZUkcuYPBKTy-99" target="VHds4E-agZUkcuYPBKTy-113">
          <mxGeometry relative="1" as="geometry" />
        </mxCell>
        <mxCell id="VHds4E-agZUkcuYPBKTy-110" value="&lt;div style=&quot;color: rgb(0, 0, 0); background-color: rgb(255, 255, 255); font-family: &amp;quot;Fira Code&amp;quot;, Menlo, Monaco, &amp;quot;Courier New&amp;quot;, monospace; font-weight: normal; font-size: 11px; line-height: 21px; white-space: pre;&quot;&gt;&lt;div style=&quot;line-height: 21px; font-size: 11px;&quot;&gt;cur_gate_expert&lt;/div&gt;&lt;/div&gt;" style="text;whiteSpace=wrap;html=1;strokeColor=default;align=center;fontSize=11;" vertex="1" parent="VHds4E-agZUkcuYPBKTy-91">
          <mxGeometry x="161.73913043478262" y="7.2994186046511516" width="109.51086956521739" height="28.406976744186046" as="geometry" />
        </mxCell>
        <mxCell id="VHds4E-agZUkcuYPBKTy-111" style="edgeStyle=orthogonalEdgeStyle;rounded=0;orthogonalLoop=1;jettySize=auto;html=1;exitX=0.5;exitY=0;exitDx=0;exitDy=0;entryX=0.5;entryY=1;entryDx=0;entryDy=0;fontSize=11;" edge="1" parent="VHds4E-agZUkcuYPBKTy-91" source="VHds4E-agZUkcuYPBKTy-113" target="VHds4E-agZUkcuYPBKTy-110">
          <mxGeometry relative="1" as="geometry" />
        </mxCell>
        <mxCell id="VHds4E-agZUkcuYPBKTy-112" value="" style="group;rotation=0;fontSize=11;" vertex="1" connectable="0" parent="VHds4E-agZUkcuYPBKTy-91">
          <mxGeometry x="203.85869565217394" y="51.127325581395354" width="25.271739130434785" height="24.348837209302324" as="geometry" />
        </mxCell>
        <mxCell id="VHds4E-agZUkcuYPBKTy-113" value="" style="ellipse;whiteSpace=wrap;html=1;aspect=fixed;container=0;rotation=0;fontSize=11;" vertex="1" parent="VHds4E-agZUkcuYPBKTy-112">
          <mxGeometry width="23.866599475328886" height="23.866599475328886" as="geometry" />
        </mxCell>
        <mxCell id="VHds4E-agZUkcuYPBKTy-114" value="" style="endArrow=none;html=1;rounded=0;entryX=1;entryY=0;entryDx=0;entryDy=0;exitX=0;exitY=1;exitDx=0;exitDy=0;fontSize=11;" edge="1" parent="VHds4E-agZUkcuYPBKTy-112" source="VHds4E-agZUkcuYPBKTy-113" target="VHds4E-agZUkcuYPBKTy-113">
          <mxGeometry width="50" height="50" relative="1" as="geometry">
            <mxPoint x="5.054347826086956" y="21.10232558139535" as="sourcePoint" />
            <mxPoint x="21.059782608695652" y="3.2465116279069766" as="targetPoint" />
          </mxGeometry>
        </mxCell>
        <mxCell id="VHds4E-agZUkcuYPBKTy-115" value="" style="endArrow=none;html=1;rounded=0;exitX=0;exitY=0;exitDx=0;exitDy=0;fontSize=11;" edge="1" parent="VHds4E-agZUkcuYPBKTy-112" source="VHds4E-agZUkcuYPBKTy-113">
          <mxGeometry width="50" height="50" relative="1" as="geometry">
            <mxPoint x="5.054347826086956" y="3.2465116279069766" as="sourcePoint" />
            <mxPoint x="21.90217391304348" y="20.290697674418603" as="targetPoint" />
          </mxGeometry>
        </mxCell>
        <mxCell id="VHds4E-agZUkcuYPBKTy-116" style="edgeStyle=orthogonalEdgeStyle;rounded=0;orthogonalLoop=1;jettySize=auto;html=1;exitX=0.5;exitY=0;exitDx=0;exitDy=0;entryX=0.5;entryY=1;entryDx=0;entryDy=0;" edge="1" parent="1" source="VHds4E-agZUkcuYPBKTy-119" target="VHds4E-agZUkcuYPBKTy-128">
          <mxGeometry relative="1" as="geometry" />
        </mxCell>
        <mxCell id="VHds4E-agZUkcuYPBKTy-117" style="edgeStyle=orthogonalEdgeStyle;shape=connector;rounded=0;orthogonalLoop=1;jettySize=auto;html=1;entryX=1;entryY=0.5;entryDx=0;entryDy=0;strokeColor=default;align=center;verticalAlign=middle;fontFamily=Helvetica;fontSize=11;fontColor=default;labelBackgroundColor=default;endArrow=classic;" edge="1" parent="1" source="VHds4E-agZUkcuYPBKTy-119" target="VHds4E-agZUkcuYPBKTy-43">
          <mxGeometry relative="1" as="geometry" />
        </mxCell>
        <mxCell id="VHds4E-agZUkcuYPBKTy-118" value="reshape" style="edgeLabel;html=1;align=center;verticalAlign=middle;resizable=0;points=[];fontFamily=Helvetica;fontSize=11;fontColor=default;labelBackgroundColor=default;" vertex="1" connectable="0" parent="VHds4E-agZUkcuYPBKTy-117">
          <mxGeometry x="-0.3427" relative="1" as="geometry">
            <mxPoint x="-5" y="-10" as="offset" />
          </mxGeometry>
        </mxCell>
        <mxCell id="VHds4E-agZUkcuYPBKTy-119" value="&lt;div style=&quot;background-color: rgb(255, 255, 255); font-family: &amp;quot;Fira Code&amp;quot;, Menlo, Monaco, &amp;quot;Courier New&amp;quot;, monospace; font-size: 14px; line-height: 21px; white-space: pre;&quot;&gt;&lt;div style=&quot;line-height: 21px;&quot;&gt;&lt;div style=&quot;line-height: 21px;&quot;&gt;user_emb&lt;/div&gt;&lt;/div&gt;&lt;/div&gt;" style="rounded=0;whiteSpace=wrap;html=1;" vertex="1" parent="1">
          <mxGeometry x="-259.5" y="733" width="126" height="35" as="geometry" />
        </mxCell>
        <mxCell id="VHds4E-agZUkcuYPBKTy-120" style="edgeStyle=orthogonalEdgeStyle;rounded=0;orthogonalLoop=1;jettySize=auto;html=1;entryX=0.5;entryY=1;entryDx=0;entryDy=0;" edge="1" parent="1" source="VHds4E-agZUkcuYPBKTy-126" target="VHds4E-agZUkcuYPBKTy-128">
          <mxGeometry relative="1" as="geometry" />
        </mxCell>
        <mxCell id="VHds4E-agZUkcuYPBKTy-121" value="&lt;span style=&quot;font-family: &amp;quot;Fira Code&amp;quot;, Menlo, Monaco, &amp;quot;Courier New&amp;quot;, monospace; text-align: left; white-space-collapse: preserve;&quot;&gt;&lt;font style=&quot;font-size: 10px;&quot;&gt;attention()&lt;/font&gt;&lt;/span&gt;" style="edgeLabel;html=1;align=center;verticalAlign=middle;resizable=0;points=[];" vertex="1" connectable="0" parent="VHds4E-agZUkcuYPBKTy-120">
          <mxGeometry x="-0.1916" y="1" relative="1" as="geometry">
            <mxPoint x="-52" y="-20" as="offset" />
          </mxGeometry>
        </mxCell>
        <mxCell id="VHds4E-agZUkcuYPBKTy-122" style="edgeStyle=orthogonalEdgeStyle;rounded=0;orthogonalLoop=1;jettySize=auto;html=1;entryX=0;entryY=0.5;entryDx=0;entryDy=0;" edge="1" parent="1" source="VHds4E-agZUkcuYPBKTy-126" target="VHds4E-agZUkcuYPBKTy-137">
          <mxGeometry relative="1" as="geometry" />
        </mxCell>
        <mxCell id="VHds4E-agZUkcuYPBKTy-123" value="&lt;span style=&quot;font-family: &amp;quot;Fira Code&amp;quot;, Menlo, Monaco, &amp;quot;Courier New&amp;quot;, monospace; font-size: 10px; text-align: left; white-space-collapse: preserve;&quot;&gt;attention()&lt;/span&gt;" style="edgeLabel;html=1;align=center;verticalAlign=middle;resizable=0;points=[];" vertex="1" connectable="0" parent="VHds4E-agZUkcuYPBKTy-122">
          <mxGeometry x="0.3951" y="1" relative="1" as="geometry">
            <mxPoint x="-23" y="-8" as="offset" />
          </mxGeometry>
        </mxCell>
        <mxCell id="VHds4E-agZUkcuYPBKTy-124" style="edgeStyle=orthogonalEdgeStyle;shape=connector;rounded=0;orthogonalLoop=1;jettySize=auto;html=1;exitX=1;exitY=0.5;exitDx=0;exitDy=0;entryX=0;entryY=0.5;entryDx=0;entryDy=0;strokeColor=default;align=center;verticalAlign=middle;fontFamily=Helvetica;fontSize=11;fontColor=default;labelBackgroundColor=default;endArrow=classic;" edge="1" parent="1" source="VHds4E-agZUkcuYPBKTy-126" target="VHds4E-agZUkcuYPBKTy-153">
          <mxGeometry relative="1" as="geometry" />
        </mxCell>
        <mxCell id="VHds4E-agZUkcuYPBKTy-125" value="reshape()" style="edgeLabel;html=1;align=center;verticalAlign=middle;resizable=0;points=[];fontFamily=Helvetica;fontSize=11;fontColor=default;labelBackgroundColor=default;" vertex="1" connectable="0" parent="VHds4E-agZUkcuYPBKTy-124">
          <mxGeometry x="0.6743" y="-1" relative="1" as="geometry">
            <mxPoint x="-9" y="13" as="offset" />
          </mxGeometry>
        </mxCell>
        <mxCell id="VHds4E-agZUkcuYPBKTy-126" value="&lt;div style=&quot;background-color: rgb(255, 255, 255); font-family: &amp;quot;Fira Code&amp;quot;, Menlo, Monaco, &amp;quot;Courier New&amp;quot;, monospace; font-size: 14px; line-height: 21px; white-space: pre;&quot;&gt;&lt;div style=&quot;line-height: 21px;&quot;&gt;&lt;div style=&quot;line-height: 21px;&quot;&gt;&lt;div style=&quot;line-height: 21px;&quot;&gt;seeds_emb&lt;/div&gt;&lt;/div&gt;&lt;/div&gt;&lt;/div&gt;" style="rounded=0;whiteSpace=wrap;html=1;" vertex="1" parent="1">
          <mxGeometry x="-116.5" y="732" width="126" height="35" as="geometry" />
        </mxCell>
        <mxCell id="VHds4E-agZUkcuYPBKTy-127" value="reshape" style="edgeStyle=orthogonalEdgeStyle;rounded=0;orthogonalLoop=1;jettySize=auto;html=1;exitX=0.5;exitY=0;exitDx=0;exitDy=0;entryX=0.5;entryY=1;entryDx=0;entryDy=0;" edge="1" parent="1" source="VHds4E-agZUkcuYPBKTy-128" target="VHds4E-agZUkcuYPBKTy-10">
          <mxGeometry relative="1" as="geometry" />
        </mxCell>
        <mxCell id="VHds4E-agZUkcuYPBKTy-128" value="&lt;div style=&quot;background-color: rgb(255, 255, 255); font-family: &amp;quot;Fira Code&amp;quot;, Menlo, Monaco, &amp;quot;Courier New&amp;quot;, monospace; font-size: 14px; line-height: 21px; white-space: pre;&quot;&gt;&lt;div style=&quot;line-height: 21px;&quot;&gt;&lt;span style=&quot;text-align: left;&quot;&gt;user_att&lt;/span&gt;&lt;br&gt;&lt;/div&gt;&lt;/div&gt;" style="rounded=0;whiteSpace=wrap;html=1;" vertex="1" parent="1">
          <mxGeometry x="-190.5" y="626" width="126" height="35" as="geometry" />
        </mxCell>
        <mxCell id="VHds4E-agZUkcuYPBKTy-129" style="edgeStyle=orthogonalEdgeStyle;rounded=0;orthogonalLoop=1;jettySize=auto;html=1;entryX=0.5;entryY=1;entryDx=0;entryDy=0;" edge="1" parent="1" source="VHds4E-agZUkcuYPBKTy-131" target="VHds4E-agZUkcuYPBKTy-13">
          <mxGeometry relative="1" as="geometry" />
        </mxCell>
        <mxCell id="VHds4E-agZUkcuYPBKTy-130" value="reshape" style="edgeLabel;html=1;align=center;verticalAlign=middle;resizable=0;points=[];" vertex="1" connectable="0" parent="VHds4E-agZUkcuYPBKTy-129">
          <mxGeometry x="0.2742" y="3" relative="1" as="geometry">
            <mxPoint as="offset" />
          </mxGeometry>
        </mxCell>
        <mxCell id="VHds4E-agZUkcuYPBKTy-131" value="&lt;div style=&quot;background-color: rgb(255, 255, 255); font-family: &amp;quot;Fira Code&amp;quot;, Menlo, Monaco, &amp;quot;Courier New&amp;quot;, monospace; font-size: 14px; line-height: 21px; white-space: pre;&quot;&gt;&lt;div style=&quot;line-height: 21px;&quot;&gt;&lt;div style=&quot;line-height: 21px;&quot;&gt;seeds_att_avg&lt;/div&gt;&lt;/div&gt;&lt;/div&gt;" style="rounded=0;whiteSpace=wrap;html=1;" vertex="1" parent="1">
          <mxGeometry x="-35.83000000000001" y="621" width="126" height="35" as="geometry" />
        </mxCell>
        <mxCell id="VHds4E-agZUkcuYPBKTy-132" style="edgeStyle=orthogonalEdgeStyle;rounded=0;orthogonalLoop=1;jettySize=auto;html=1;entryX=1;entryY=0.5;entryDx=0;entryDy=0;" edge="1" parent="1" source="VHds4E-agZUkcuYPBKTy-134" target="VHds4E-agZUkcuYPBKTy-131">
          <mxGeometry relative="1" as="geometry" />
        </mxCell>
        <mxCell id="VHds4E-agZUkcuYPBKTy-133" value="&lt;div style=&quot;font-family: &amp;quot;Fira Code&amp;quot;, Menlo, Monaco, &amp;quot;Courier New&amp;quot;, monospace; line-height: 21px; white-space-collapse: preserve;&quot;&gt;&lt;font style=&quot;font-size: 10px;&quot;&gt;pool2d&lt;/font&gt;&lt;/div&gt;" style="edgeLabel;html=1;align=center;verticalAlign=middle;resizable=0;points=[];" vertex="1" connectable="0" parent="VHds4E-agZUkcuYPBKTy-132">
          <mxGeometry x="-0.1614" relative="1" as="geometry">
            <mxPoint as="offset" />
          </mxGeometry>
        </mxCell>
        <mxCell id="VHds4E-agZUkcuYPBKTy-134" value="&lt;meta charset=&quot;utf-8&quot;&gt;&lt;div style=&quot;color: #000000;background-color: #ffffff;font-family: &#39;Fira Code&#39;, Menlo, Monaco, &#39;Courier New&#39;, monospace;font-weight: normal;font-size: 14px;line-height: 21px;white-space: pre;&quot;&gt;&lt;div&gt;&lt;span style=&quot;color: #000000;&quot;&gt;seeds_att_pool_shape&lt;/span&gt;&lt;/div&gt;&lt;/div&gt;" style="rounded=0;whiteSpace=wrap;html=1;" vertex="1" parent="1">
          <mxGeometry x="67.5" y="664" width="190" height="35" as="geometry" />
        </mxCell>
        <mxCell id="VHds4E-agZUkcuYPBKTy-135" style="edgeStyle=orthogonalEdgeStyle;rounded=0;orthogonalLoop=1;jettySize=auto;html=1;entryX=0.5;entryY=1;entryDx=0;entryDy=0;" edge="1" parent="1" source="VHds4E-agZUkcuYPBKTy-137" target="VHds4E-agZUkcuYPBKTy-134">
          <mxGeometry relative="1" as="geometry" />
        </mxCell>
        <mxCell id="VHds4E-agZUkcuYPBKTy-136" value="&lt;font style=&quot;font-size: 10px;&quot;&gt;reshape&lt;/font&gt;" style="edgeLabel;html=1;align=center;verticalAlign=middle;resizable=0;points=[];" vertex="1" connectable="0" parent="VHds4E-agZUkcuYPBKTy-135">
          <mxGeometry x="0.0989" y="1" relative="1" as="geometry">
            <mxPoint as="offset" />
          </mxGeometry>
        </mxCell>
        <mxCell id="VHds4E-agZUkcuYPBKTy-137" value="&lt;div style=&quot;background-color: rgb(255, 255, 255); font-family: &amp;quot;Fira Code&amp;quot;, Menlo, Monaco, &amp;quot;Courier New&amp;quot;, monospace; font-size: 14px; line-height: 21px; white-space: pre;&quot;&gt;&lt;div style=&quot;line-height: 21px;&quot;&gt;&lt;div style=&quot;line-height: 21px;&quot;&gt;&lt;div style=&quot;line-height: 21px;&quot;&gt;seeds_att&lt;/div&gt;&lt;/div&gt;&lt;/div&gt;&lt;/div&gt;" style="rounded=0;whiteSpace=wrap;html=1;" vertex="1" parent="1">
          <mxGeometry x="99.5" y="732" width="126" height="35" as="geometry" />
        </mxCell>
        <mxCell id="VHds4E-agZUkcuYPBKTy-138" style="edgeStyle=orthogonalEdgeStyle;shape=connector;rounded=0;orthogonalLoop=1;jettySize=auto;html=1;strokeColor=default;align=center;verticalAlign=middle;fontFamily=Helvetica;fontSize=11;fontColor=default;labelBackgroundColor=default;endArrow=classic;dashed=1;" edge="1" parent="1" source="VHds4E-agZUkcuYPBKTy-140" target="VHds4E-agZUkcuYPBKTy-119">
          <mxGeometry relative="1" as="geometry" />
        </mxCell>
        <mxCell id="VHds4E-agZUkcuYPBKTy-139" value="&lt;div style=&quot;font-family: &amp;quot;Fira Code&amp;quot;, Menlo, Monaco, &amp;quot;Courier New&amp;quot;, monospace; line-height: 21px; white-space-collapse: preserve;&quot;&gt;&lt;font style=&quot;font-size: 10px;&quot;&gt;input_fc_embedding()&lt;/font&gt;&lt;/div&gt;" style="edgeLabel;html=1;align=center;verticalAlign=middle;resizable=0;points=[];fontFamily=Helvetica;fontSize=11;fontColor=default;labelBackgroundColor=default;" vertex="1" connectable="0" parent="VHds4E-agZUkcuYPBKTy-138">
          <mxGeometry x="-0.5385" y="1" relative="1" as="geometry">
            <mxPoint x="1" y="-12" as="offset" />
          </mxGeometry>
        </mxCell>
        <mxCell id="VHds4E-agZUkcuYPBKTy-140" value="&lt;div style=&quot;background-color: rgb(255, 255, 255); font-family: &amp;quot;Fira Code&amp;quot;, Menlo, Monaco, &amp;quot;Courier New&amp;quot;, monospace; font-size: 14px; line-height: 21px; white-space: pre;&quot;&gt;&lt;div style=&quot;line-height: 21px;&quot;&gt;&lt;div style=&quot;line-height: 21px;&quot;&gt;user_reshape&lt;/div&gt;&lt;/div&gt;&lt;/div&gt;" style="rounded=0;whiteSpace=wrap;html=1;" vertex="1" parent="1">
          <mxGeometry x="-259.5" y="812" width="126" height="35" as="geometry" />
        </mxCell>
        <mxCell id="VHds4E-agZUkcuYPBKTy-141" style="edgeStyle=orthogonalEdgeStyle;shape=connector;rounded=0;orthogonalLoop=1;jettySize=auto;html=1;entryX=0.5;entryY=1;entryDx=0;entryDy=0;strokeColor=default;align=center;verticalAlign=middle;fontFamily=Helvetica;fontSize=11;fontColor=default;labelBackgroundColor=default;endArrow=classic;dashed=1;" edge="1" parent="1" source="VHds4E-agZUkcuYPBKTy-143" target="VHds4E-agZUkcuYPBKTy-126">
          <mxGeometry relative="1" as="geometry" />
        </mxCell>
        <mxCell id="VHds4E-agZUkcuYPBKTy-142" value="&lt;span style=&quot;font-family: &amp;quot;Fira Code&amp;quot;, Menlo, Monaco, &amp;quot;Courier New&amp;quot;, monospace; font-size: 10px; white-space-collapse: preserve;&quot;&gt;input_fc_embedding()&lt;/span&gt;" style="edgeLabel;html=1;align=center;verticalAlign=middle;resizable=0;points=[];fontFamily=Helvetica;fontSize=11;fontColor=default;labelBackgroundColor=default;" vertex="1" connectable="0" parent="VHds4E-agZUkcuYPBKTy-141">
          <mxGeometry x="-0.0478" y="2" relative="1" as="geometry">
            <mxPoint as="offset" />
          </mxGeometry>
        </mxCell>
        <mxCell id="VHds4E-agZUkcuYPBKTy-143" value="&lt;div style=&quot;background-color: rgb(255, 255, 255); font-family: &amp;quot;Fira Code&amp;quot;, Menlo, Monaco, &amp;quot;Courier New&amp;quot;, monospace; font-size: 14px; line-height: 21px; white-space: pre;&quot;&gt;&lt;div style=&quot;line-height: 21px;&quot;&gt;&lt;div style=&quot;line-height: 21px;&quot;&gt;&lt;div style=&quot;line-height: 21px;&quot;&gt;seeds_reshape&lt;/div&gt;&lt;/div&gt;&lt;/div&gt;&lt;/div&gt;" style="rounded=0;whiteSpace=wrap;html=1;" vertex="1" parent="1">
          <mxGeometry x="-116.5" y="811" width="126" height="35" as="geometry" />
        </mxCell>
        <mxCell id="VHds4E-agZUkcuYPBKTy-144" value="reshape" style="edgeStyle=orthogonalEdgeStyle;shape=connector;rounded=0;orthogonalLoop=1;jettySize=auto;html=1;entryX=0.5;entryY=1;entryDx=0;entryDy=0;strokeColor=default;align=center;verticalAlign=middle;fontFamily=Helvetica;fontSize=11;fontColor=default;labelBackgroundColor=default;endArrow=classic;" edge="1" parent="1" source="VHds4E-agZUkcuYPBKTy-145" target="VHds4E-agZUkcuYPBKTy-140">
          <mxGeometry x="-0.0773" y="24" relative="1" as="geometry">
            <mxPoint as="offset" />
          </mxGeometry>
        </mxCell>
        <mxCell id="VHds4E-agZUkcuYPBKTy-145" value="&lt;div style=&quot;background-color: rgb(255, 255, 255); font-family: &amp;quot;Fira Code&amp;quot;, Menlo, Monaco, &amp;quot;Courier New&amp;quot;, monospace; font-size: 14px; line-height: 21px; white-space: pre;&quot;&gt;&lt;div style=&quot;line-height: 21px;&quot;&gt;&lt;div style=&quot;line-height: 21px;&quot;&gt;user_slot&lt;/div&gt;&lt;/div&gt;&lt;/div&gt;" style="rounded=0;whiteSpace=wrap;html=1;" vertex="1" parent="1">
          <mxGeometry x="-260" y="879" width="126" height="35" as="geometry" />
        </mxCell>
        <mxCell id="VHds4E-agZUkcuYPBKTy-146" value="reshape" style="edgeStyle=orthogonalEdgeStyle;shape=connector;rounded=0;orthogonalLoop=1;jettySize=auto;html=1;strokeColor=default;align=center;verticalAlign=middle;fontFamily=Helvetica;fontSize=11;fontColor=default;labelBackgroundColor=default;endArrow=classic;" edge="1" parent="1">
          <mxGeometry x="-0.1489" y="-24" relative="1" as="geometry">
            <mxPoint x="-53.012820512820326" y="878" as="sourcePoint" />
            <mxPoint x="-52.5" y="846" as="targetPoint" />
            <mxPoint as="offset" />
          </mxGeometry>
        </mxCell>
        <mxCell id="VHds4E-agZUkcuYPBKTy-147" value="&lt;div style=&quot;background-color: rgb(255, 255, 255); font-family: &amp;quot;Fira Code&amp;quot;, Menlo, Monaco, &amp;quot;Courier New&amp;quot;, monospace; font-size: 14px; line-height: 21px; white-space: pre;&quot;&gt;&lt;div style=&quot;line-height: 21px;&quot;&gt;&lt;div style=&quot;line-height: 21px;&quot;&gt;&lt;div style=&quot;line-height: 21px;&quot;&gt;seeds_slot&lt;/div&gt;&lt;/div&gt;&lt;/div&gt;&lt;/div&gt;" style="rounded=0;whiteSpace=wrap;html=1;" vertex="1" parent="1">
          <mxGeometry x="-117" y="878" width="126" height="35" as="geometry" />
        </mxCell>
        <mxCell id="VHds4E-agZUkcuYPBKTy-148" value="&lt;span style=&quot;font-family: &amp;quot;Fira Code&amp;quot;, Menlo, Monaco, &amp;quot;Courier New&amp;quot;, monospace; white-space-collapse: preserve;&quot;&gt;&lt;font style=&quot;font-size: 10px;&quot;&gt;deep_net()&lt;/font&gt;&lt;/span&gt;" style="edgeLabel;html=1;align=center;verticalAlign=middle;resizable=0;points=[];fontFamily=Helvetica;fontSize=11;fontColor=default;labelBackgroundColor=default;" vertex="1" connectable="0" parent="1">
          <mxGeometry x="-58.67026406079832" y="449.995018722428" as="geometry" />
        </mxCell>
        <mxCell id="VHds4E-agZUkcuYPBKTy-149" value="&lt;span style=&quot;font-family: &amp;quot;Fira Code&amp;quot;, Menlo, Monaco, &amp;quot;Courier New&amp;quot;, monospace; white-space-collapse: preserve;&quot;&gt;&lt;font style=&quot;font-size: 10px;&quot;&gt;deep_net()&lt;/font&gt;&lt;/span&gt;" style="edgeLabel;html=1;align=center;verticalAlign=middle;resizable=0;points=[];fontFamily=Helvetica;fontSize=11;fontColor=default;labelBackgroundColor=default;" vertex="1" connectable="0" parent="1">
          <mxGeometry x="-435.0002640607983" y="473.87501872242797" as="geometry" />
        </mxCell>
        <mxCell id="VHds4E-agZUkcuYPBKTy-150" value="&lt;div style=&quot;background-color: rgb(255, 255, 255); font-family: &amp;quot;Fira Code&amp;quot;, Menlo, Monaco, &amp;quot;Courier New&amp;quot;, monospace; font-size: 14px; line-height: 21px; white-space: pre;&quot;&gt;&lt;div style=&quot;line-height: 21px;&quot;&gt;&lt;div style=&quot;line-height: 21px;&quot;&gt;&lt;div style=&quot;line-height: 21px;&quot;&gt;user_emb_reshape&lt;/div&gt;&lt;/div&gt;&lt;/div&gt;&lt;/div&gt;" style="rounded=0;whiteSpace=wrap;html=1;" vertex="1" parent="1">
          <mxGeometry x="-843" y="497.5" width="145" height="35" as="geometry" />
        </mxCell>
        <mxCell id="VHds4E-agZUkcuYPBKTy-151" value="" style="edgeStyle=orthogonalEdgeStyle;shape=connector;rounded=0;orthogonalLoop=1;jettySize=auto;html=1;strokeColor=default;align=center;verticalAlign=middle;fontFamily=Helvetica;fontSize=11;fontColor=default;labelBackgroundColor=default;endArrow=classic;" edge="1" parent="1" source="VHds4E-agZUkcuYPBKTy-153" target="VHds4E-agZUkcuYPBKTy-154">
          <mxGeometry relative="1" as="geometry" />
        </mxCell>
        <mxCell id="VHds4E-agZUkcuYPBKTy-152" value="&lt;div style=&quot;font-family: &amp;quot;Fira Code&amp;quot;, Menlo, Monaco, &amp;quot;Courier New&amp;quot;, monospace; line-height: 21px; white-space-collapse: preserve;&quot;&gt;&lt;font style=&quot;font-size: 11px;&quot;&gt;pool2d()&lt;/font&gt;&lt;/div&gt;" style="edgeLabel;html=1;align=center;verticalAlign=middle;resizable=0;points=[];fontFamily=Helvetica;fontSize=11;fontColor=default;labelBackgroundColor=default;" vertex="1" connectable="0" parent="VHds4E-agZUkcuYPBKTy-151">
          <mxGeometry x="0.2684" relative="1" as="geometry">
            <mxPoint x="-32" y="-3" as="offset" />
          </mxGeometry>
        </mxCell>
        <mxCell id="VHds4E-agZUkcuYPBKTy-153" value="&lt;div style=&quot;background-color: rgb(255, 255, 255); font-family: &amp;quot;Fira Code&amp;quot;, Menlo, Monaco, &amp;quot;Courier New&amp;quot;, monospace; font-size: 14px; line-height: 21px; white-space: pre;&quot;&gt;&lt;div style=&quot;line-height: 21px;&quot;&gt;&lt;div style=&quot;line-height: 21px;&quot;&gt;&lt;div style=&quot;line-height: 21px;&quot;&gt;&lt;div style=&quot;line-height: 21px;&quot;&gt;seeds_pool_shape&lt;/div&gt;&lt;/div&gt;&lt;/div&gt;&lt;/div&gt;&lt;/div&gt;" style="rounded=0;whiteSpace=wrap;html=1;" vertex="1" parent="1">
          <mxGeometry x="99.5" y="790" width="145" height="35" as="geometry" />
        </mxCell>
        <mxCell id="VHds4E-agZUkcuYPBKTy-154" value="&lt;div style=&quot;background-color: rgb(255, 255, 255); font-family: &amp;quot;Fira Code&amp;quot;, Menlo, Monaco, &amp;quot;Courier New&amp;quot;, monospace; font-size: 14px; line-height: 21px; white-space: pre;&quot;&gt;&lt;div style=&quot;line-height: 21px;&quot;&gt;&lt;div style=&quot;line-height: 21px;&quot;&gt;&lt;div style=&quot;line-height: 21px;&quot;&gt;&lt;div style=&quot;line-height: 21px;&quot;&gt;&lt;div style=&quot;line-height: 21px;&quot;&gt;seeds_emb_avg&lt;/div&gt;&lt;/div&gt;&lt;/div&gt;&lt;/div&gt;&lt;/div&gt;&lt;/div&gt;" style="rounded=0;whiteSpace=wrap;html=1;" vertex="1" parent="1">
          <mxGeometry x="99.5" y="860" width="145" height="35" as="geometry" />
        </mxCell>
      </root>
    </mxGraphModel>
  </diagram>
</mxfile>
